<svg width="95" height="48" viewBox="0 0 95 48" fill="none" xmlns="http://www.w3.org/2000/svg">
<mask id="path-1-outside-1" maskUnits="userSpaceOnUse" x="-0.353333" y="0.0134277" width="48" height="48" fill="black">
<rect fill="white" x="-0.353333" y="0.0134277" width="48" height="48"/>
<path d="M46.3756 43.6594C46.5397 43.4762 46.6659 43.2622 46.7467 43.0299C46.8276 42.7976 46.8615 42.5516 46.8466 42.306C46.8318 42.0605 46.7683 41.8204 46.66 41.5995C46.5517 41.3787 46.4007 41.1815 46.2156 41.0194L41.2156 36.5894L41.9456 37.0894C42.2641 37.3058 42.6406 37.4208 43.0256 37.4194C43.1519 37.4342 43.2794 37.4342 43.4056 37.4194C43.7751 37.3501 44.1162 37.1745 44.3872 36.9141C44.6582 36.6536 44.8472 36.3197 44.9311 35.9533C45.015 35.5869 44.9901 35.204 44.8595 34.8516C44.7288 34.4992 44.4981 34.1926 44.1956 33.9694L36.1956 27.9694C35.8366 27.7002 35.537 27.3598 35.3156 26.9694C32.7161 22.206 29.5643 17.7654 25.9256 13.7394C25.1824 12.9571 24.2485 12.3816 23.2156 12.0694L22.2656 11.7894C21.6514 11.6007 21.0734 11.31 20.5556 10.9294L7.49563 1.08944C7.45689 1.05989 7.41271 1.03826 7.36561 1.02579C7.31852 1.01332 7.26942 1.01024 7.22114 1.01674C7.17285 1.02324 7.12632 1.03919 7.08419 1.06367C7.04207 1.08816 7.00518 1.1207 6.97563 1.15944C6.94609 1.19818 6.92446 1.24236 6.91198 1.28946C6.89951 1.33656 6.89644 1.38565 6.90294 1.43394C6.90944 1.48222 6.92538 1.52876 6.94987 1.57088C6.97435 1.613 7.00689 1.64989 7.04563 1.67944L20.1156 11.4794C20.6936 11.9262 21.3474 12.2649 22.0456 12.4794L22.9956 12.7694C23.9089 13.0381 24.7339 13.5455 25.3856 14.2394C28.9848 18.2234 32.1029 22.617 34.6756 27.3294C34.9481 27.8059 35.3157 28.2212 35.7556 28.5494L43.7556 34.5494C43.9997 34.7331 44.1646 35.0029 44.2166 35.304C44.2687 35.605 44.2039 35.9145 44.0356 36.1694C43.9493 36.3008 43.8376 36.4135 43.7071 36.5011C43.5766 36.5887 43.4299 36.6493 43.2756 36.6794C43.1213 36.7134 42.9617 36.715 42.8067 36.684C42.6518 36.653 42.505 36.5902 42.3756 36.4994L37.0356 32.9094L33.8556 30.0894C33.7814 30.0245 33.6843 29.9916 33.5859 29.9982C33.4874 30.0048 33.3956 30.0502 33.3306 30.1244C33.2657 30.1987 33.2328 30.2957 33.2394 30.3942C33.246 30.4926 33.2914 30.5845 33.3656 30.6494L45.7456 41.6494C45.8577 41.7476 45.949 41.8672 46.0142 42.0011C46.0795 42.1351 46.1174 42.2807 46.1256 42.4294C46.1452 42.6477 46.1009 42.867 45.9981 43.0605C45.8953 43.254 45.7384 43.4135 45.5466 43.5195C45.3548 43.6254 45.1363 43.6733 44.9177 43.6574C44.6992 43.6414 44.49 43.5622 44.3156 43.4294L39.9856 39.9794C37.2356 37.4494 34.8656 35.4794 31.8356 33.0794C31.7578 33.0209 31.6604 32.9945 31.5637 33.0056C31.4669 33.0168 31.3781 33.0647 31.3156 33.1394C31.2854 33.1775 31.263 33.2212 31.2497 33.2679C31.2363 33.3147 31.2323 33.3636 31.2379 33.4119C31.2435 33.4602 31.2585 33.5069 31.2821 33.5494C31.3058 33.5918 31.3375 33.6292 31.3756 33.6594C34.3756 36.0094 36.6656 37.9394 39.3756 40.3994C39.3756 40.3994 39.3756 40.3994 39.4256 40.3994L39.5356 40.4894C40.8756 41.7194 42.3056 43.0794 43.9656 44.7094C44.0656 44.7978 44.1468 44.9053 44.2046 45.0256C44.2624 45.1458 44.2955 45.2764 44.302 45.4097C44.3085 45.5429 44.2883 45.6762 44.2426 45.8015C44.1968 45.9268 44.1265 46.0417 44.0356 46.1394C43.8762 46.3264 43.6534 46.4481 43.41 46.4813C43.1665 46.5145 42.9193 46.4569 42.7156 46.3194L40.1856 44.6694H40.1056V44.5594C40.0898 44.3039 40.0223 44.0543 39.9072 43.8257C39.792 43.597 39.6316 43.3942 39.4356 43.2294L28.8756 34.5894C28.8375 34.5592 28.7939 34.5368 28.7471 34.5235C28.7004 34.5102 28.6515 34.5062 28.6032 34.5117C28.5549 34.5173 28.5082 34.5323 28.4657 34.556C28.4232 34.5796 28.3858 34.6114 28.3556 34.6494C28.3254 34.6875 28.303 34.7312 28.2897 34.7779C28.2764 34.8247 28.2724 34.8736 28.2779 34.9219C28.2835 34.9701 28.2985 35.0169 28.3222 35.0593C28.3458 35.1018 28.3776 35.1392 28.4156 35.1694L38.9156 43.7194C39.0329 43.8166 39.129 43.9369 39.1978 44.0728C39.2666 44.2087 39.3067 44.3574 39.3156 44.5094C39.3264 44.6634 39.3043 44.8179 39.2509 44.9627C39.1974 45.1076 39.1138 45.2394 39.0056 45.3494C38.8306 45.5323 38.5983 45.6498 38.3473 45.6826C38.0964 45.7153 37.8417 45.6613 37.6256 45.5294L23.1556 36.8494C23.3778 36.5439 23.5088 36.1816 23.5336 35.8047C23.5583 35.4277 23.4758 35.0515 23.2956 34.7194C23.1556 34.4694 23.0056 34.2194 22.8456 33.9794C22.2923 33.1914 21.5971 32.5131 20.7956 31.9794L18.7056 30.4894L18.1256 26.9994C18.0455 26.698 18.0455 26.3809 18.1256 26.0794L18.5256 24.5594C18.5501 24.4627 18.5354 24.3602 18.4849 24.2741C18.4344 24.188 18.352 24.1253 18.2556 24.0994C18.1603 24.0779 18.0603 24.094 17.9765 24.1443C17.8927 24.1946 17.8315 24.2752 17.8056 24.3694L17.4056 25.8994C17.2953 26.3122 17.2953 26.7467 17.4056 27.1594L17.9656 30.6094C18.007 30.8284 18.1327 31.0223 18.3156 31.1494L20.3756 32.5594C21.1046 33.0519 21.7353 33.6759 22.2356 34.3994C22.3756 34.6194 22.5156 34.8394 22.6456 35.0794C22.7706 35.3123 22.821 35.5779 22.7901 35.8403C22.7592 36.1027 22.6484 36.3493 22.4728 36.5468C22.2972 36.7442 22.0652 36.883 21.8081 36.9442C21.5511 37.0055 21.2814 36.9864 21.0356 36.8894L15.4356 34.5394C15.0662 34.3875 14.7308 34.1632 14.4492 33.8799C14.1676 33.5965 13.9454 33.2598 13.7956 32.8894L11.4156 26.9594C11.0756 26.1217 11.0057 25.1988 11.2156 24.3194L13.3256 16.0094C13.3376 15.9622 13.3401 15.913 13.333 15.8647C13.3259 15.8165 13.3093 15.7701 13.2842 15.7283C13.2591 15.6865 13.226 15.65 13.1868 15.621C13.1476 15.5921 13.103 15.5711 13.0556 15.5594C13.0084 15.5475 12.9592 15.545 12.9109 15.5521C12.8627 15.5592 12.8163 15.5758 12.7745 15.6009C12.7327 15.6259 12.6962 15.6591 12.6672 15.6983C12.6383 15.7375 12.6173 15.7821 12.6056 15.8294L12.1456 17.6494C10.2156 16.0694 1.58563 11.1594 1.20563 10.9394C1.11944 10.8904 1.01728 10.8776 0.921639 10.9038C0.825995 10.9301 0.744699 10.9932 0.695634 11.0794C0.646569 11.1656 0.633754 11.2678 0.660009 11.3634C0.686264 11.4591 0.749438 11.5404 0.835634 11.5894C4.22563 13.5094 10.8956 17.4194 11.8356 18.3994C11.8356 18.3994 11.8956 18.3994 11.9156 18.3994L10.4956 24.1394C10.2557 25.1722 10.3359 26.2534 10.7256 27.2394L13.1056 33.1694C13.2956 33.6292 13.5745 34.047 13.9263 34.3988C14.2781 34.7506 14.6958 35.0295 15.1556 35.2194L20.7456 37.5794C20.9939 37.6781 21.2585 37.729 21.5256 37.7294C21.9163 37.7265 22.2979 37.612 22.6256 37.3994L37.2456 46.1694C37.6063 46.3898 38.0318 46.4792 38.4507 46.4228C38.8695 46.3663 39.2562 46.1674 39.5456 45.8594C39.6882 45.7071 39.8033 45.5312 39.8856 45.3394L42.2556 46.8794C42.6155 47.1037 43.0442 47.1905 43.4629 47.1239C43.8817 47.0573 44.2623 46.8417 44.5348 46.5169C44.8073 46.1921 44.9534 45.7798 44.9462 45.3559C44.939 44.9319 44.779 44.5248 44.4956 44.2094C44.6488 44.2522 44.8067 44.2758 44.9656 44.2794C45.2311 44.2815 45.494 44.2273 45.737 44.1205C45.9801 44.0136 46.1977 43.8565 46.3756 43.6594Z"/>
</mask>
<path d="M46.3756 43.6594C46.5397 43.4762 46.6659 43.2622 46.7467 43.0299C46.8276 42.7976 46.8615 42.5516 46.8466 42.306C46.8318 42.0605 46.7683 41.8204 46.66 41.5995C46.5517 41.3787 46.4007 41.1815 46.2156 41.0194L41.2156 36.5894L41.9456 37.0894C42.2641 37.3058 42.6406 37.4208 43.0256 37.4194C43.1519 37.4342 43.2794 37.4342 43.4056 37.4194C43.7751 37.3501 44.1162 37.1745 44.3872 36.9141C44.6582 36.6536 44.8472 36.3197 44.9311 35.9533C45.015 35.5869 44.9901 35.204 44.8595 34.8516C44.7288 34.4992 44.4981 34.1926 44.1956 33.9694L36.1956 27.9694C35.8366 27.7002 35.537 27.3598 35.3156 26.9694C32.7161 22.206 29.5643 17.7654 25.9256 13.7394C25.1824 12.9571 24.2485 12.3816 23.2156 12.0694L22.2656 11.7894C21.6514 11.6007 21.0734 11.31 20.5556 10.9294L7.49563 1.08944C7.45689 1.05989 7.41271 1.03826 7.36561 1.02579C7.31852 1.01332 7.26942 1.01024 7.22114 1.01674C7.17285 1.02324 7.12632 1.03919 7.08419 1.06367C7.04207 1.08816 7.00518 1.1207 6.97563 1.15944C6.94609 1.19818 6.92446 1.24236 6.91198 1.28946C6.89951 1.33656 6.89644 1.38565 6.90294 1.43394C6.90944 1.48222 6.92538 1.52876 6.94987 1.57088C6.97435 1.613 7.00689 1.64989 7.04563 1.67944L20.1156 11.4794C20.6936 11.9262 21.3474 12.2649 22.0456 12.4794L22.9956 12.7694C23.9089 13.0381 24.7339 13.5455 25.3856 14.2394C28.9848 18.2234 32.1029 22.617 34.6756 27.3294C34.9481 27.8059 35.3157 28.2212 35.7556 28.5494L43.7556 34.5494C43.9997 34.7331 44.1646 35.0029 44.2166 35.304C44.2687 35.605 44.2039 35.9145 44.0356 36.1694C43.9493 36.3008 43.8376 36.4135 43.7071 36.5011C43.5766 36.5887 43.4299 36.6493 43.2756 36.6794C43.1213 36.7134 42.9617 36.715 42.8067 36.684C42.6518 36.653 42.505 36.5902 42.3756 36.4994L37.0356 32.9094L33.8556 30.0894C33.7814 30.0245 33.6843 29.9916 33.5859 29.9982C33.4874 30.0048 33.3956 30.0502 33.3306 30.1244C33.2657 30.1987 33.2328 30.2957 33.2394 30.3942C33.246 30.4926 33.2914 30.5845 33.3656 30.6494L45.7456 41.6494C45.8577 41.7476 45.949 41.8672 46.0142 42.0011C46.0795 42.1351 46.1174 42.2807 46.1256 42.4294C46.1452 42.6477 46.1009 42.867 45.9981 43.0605C45.8953 43.254 45.7384 43.4135 45.5466 43.5195C45.3548 43.6254 45.1363 43.6733 44.9177 43.6574C44.6992 43.6414 44.49 43.5622 44.3156 43.4294L39.9856 39.9794C37.2356 37.4494 34.8656 35.4794 31.8356 33.0794C31.7578 33.0209 31.6604 32.9945 31.5637 33.0056C31.4669 33.0168 31.3781 33.0647 31.3156 33.1394C31.2854 33.1775 31.263 33.2212 31.2497 33.2679C31.2363 33.3147 31.2323 33.3636 31.2379 33.4119C31.2435 33.4602 31.2585 33.5069 31.2821 33.5494C31.3058 33.5918 31.3375 33.6292 31.3756 33.6594C34.3756 36.0094 36.6656 37.9394 39.3756 40.3994C39.3756 40.3994 39.3756 40.3994 39.4256 40.3994L39.5356 40.4894C40.8756 41.7194 42.3056 43.0794 43.9656 44.7094C44.0656 44.7978 44.1468 44.9053 44.2046 45.0256C44.2624 45.1458 44.2955 45.2764 44.302 45.4097C44.3085 45.5429 44.2883 45.6762 44.2426 45.8015C44.1968 45.9268 44.1265 46.0417 44.0356 46.1394C43.8762 46.3264 43.6534 46.4481 43.41 46.4813C43.1665 46.5145 42.9193 46.4569 42.7156 46.3194L40.1856 44.6694H40.1056V44.5594C40.0898 44.3039 40.0223 44.0543 39.9072 43.8257C39.792 43.597 39.6316 43.3942 39.4356 43.2294L28.8756 34.5894C28.8375 34.5592 28.7939 34.5368 28.7471 34.5235C28.7004 34.5102 28.6515 34.5062 28.6032 34.5117C28.5549 34.5173 28.5082 34.5323 28.4657 34.556C28.4232 34.5796 28.3858 34.6114 28.3556 34.6494C28.3254 34.6875 28.303 34.7312 28.2897 34.7779C28.2764 34.8247 28.2724 34.8736 28.2779 34.9219C28.2835 34.9701 28.2985 35.0169 28.3222 35.0593C28.3458 35.1018 28.3776 35.1392 28.4156 35.1694L38.9156 43.7194C39.0329 43.8166 39.129 43.9369 39.1978 44.0728C39.2666 44.2087 39.3067 44.3574 39.3156 44.5094C39.3264 44.6634 39.3043 44.8179 39.2509 44.9627C39.1974 45.1076 39.1138 45.2394 39.0056 45.3494C38.8306 45.5323 38.5983 45.6498 38.3473 45.6826C38.0964 45.7153 37.8417 45.6613 37.6256 45.5294L23.1556 36.8494C23.3778 36.5439 23.5088 36.1816 23.5336 35.8047C23.5583 35.4277 23.4758 35.0515 23.2956 34.7194C23.1556 34.4694 23.0056 34.2194 22.8456 33.9794C22.2923 33.1914 21.5971 32.5131 20.7956 31.9794L18.7056 30.4894L18.1256 26.9994C18.0455 26.698 18.0455 26.3809 18.1256 26.0794L18.5256 24.5594C18.5501 24.4627 18.5354 24.3602 18.4849 24.2741C18.4344 24.188 18.352 24.1253 18.2556 24.0994C18.1603 24.0779 18.0603 24.094 17.9765 24.1443C17.8927 24.1946 17.8315 24.2752 17.8056 24.3694L17.4056 25.8994C17.2953 26.3122 17.2953 26.7467 17.4056 27.1594L17.9656 30.6094C18.007 30.8284 18.1327 31.0223 18.3156 31.1494L20.3756 32.5594C21.1046 33.0519 21.7353 33.6759 22.2356 34.3994C22.3756 34.6194 22.5156 34.8394 22.6456 35.0794C22.7706 35.3123 22.821 35.5779 22.7901 35.8403C22.7592 36.1027 22.6484 36.3493 22.4728 36.5468C22.2972 36.7442 22.0652 36.883 21.8081 36.9442C21.5511 37.0055 21.2814 36.9864 21.0356 36.8894L15.4356 34.5394C15.0662 34.3875 14.7308 34.1632 14.4492 33.8799C14.1676 33.5965 13.9454 33.2598 13.7956 32.8894L11.4156 26.9594C11.0756 26.1217 11.0057 25.1988 11.2156 24.3194L13.3256 16.0094C13.3376 15.9622 13.3401 15.913 13.333 15.8647C13.3259 15.8165 13.3093 15.7701 13.2842 15.7283C13.2591 15.6865 13.226 15.65 13.1868 15.621C13.1476 15.5921 13.103 15.5711 13.0556 15.5594C13.0084 15.5475 12.9592 15.545 12.9109 15.5521C12.8627 15.5592 12.8163 15.5758 12.7745 15.6009C12.7327 15.6259 12.6962 15.6591 12.6672 15.6983C12.6383 15.7375 12.6173 15.7821 12.6056 15.8294L12.1456 17.6494C10.2156 16.0694 1.58563 11.1594 1.20563 10.9394C1.11944 10.8904 1.01728 10.8776 0.921639 10.9038C0.825995 10.9301 0.744699 10.9932 0.695634 11.0794C0.646569 11.1656 0.633754 11.2678 0.660009 11.3634C0.686264 11.4591 0.749438 11.5404 0.835634 11.5894C4.22563 13.5094 10.8956 17.4194 11.8356 18.3994C11.8356 18.3994 11.8956 18.3994 11.9156 18.3994L10.4956 24.1394C10.2557 25.1722 10.3359 26.2534 10.7256 27.2394L13.1056 33.1694C13.2956 33.6292 13.5745 34.047 13.9263 34.3988C14.2781 34.7506 14.6958 35.0295 15.1556 35.2194L20.7456 37.5794C20.9939 37.6781 21.2585 37.729 21.5256 37.7294C21.9163 37.7265 22.2979 37.612 22.6256 37.3994L37.2456 46.1694C37.6063 46.3898 38.0318 46.4792 38.4507 46.4228C38.8695 46.3663 39.2562 46.1674 39.5456 45.8594C39.6882 45.7071 39.8033 45.5312 39.8856 45.3394L42.2556 46.8794C42.6155 47.1037 43.0442 47.1905 43.4629 47.1239C43.8817 47.0573 44.2623 46.8417 44.5348 46.5169C44.8073 46.1921 44.9534 45.7798 44.9462 45.3559C44.939 44.9319 44.779 44.5248 44.4956 44.2094C44.6488 44.2522 44.8067 44.2758 44.9656 44.2794C45.2311 44.2815 45.494 44.2273 45.737 44.1205C45.9801 44.0136 46.1977 43.8565 46.3756 43.6594Z" fill="white"/>
<path d="M46.3756 43.6594C46.5397 43.4762 46.6659 43.2622 46.7467 43.0299C46.8276 42.7976 46.8615 42.5516 46.8466 42.306C46.8318 42.0605 46.7683 41.8204 46.66 41.5995C46.5517 41.3787 46.4007 41.1815 46.2156 41.0194L41.2156 36.5894L41.9456 37.0894C42.2641 37.3058 42.6406 37.4208 43.0256 37.4194C43.1519 37.4342 43.2794 37.4342 43.4056 37.4194C43.7751 37.3501 44.1162 37.1745 44.3872 36.9141C44.6582 36.6536 44.8472 36.3197 44.9311 35.9533C45.015 35.5869 44.9901 35.204 44.8595 34.8516C44.7288 34.4992 44.4981 34.1926 44.1956 33.9694L36.1956 27.9694C35.8366 27.7002 35.537 27.3598 35.3156 26.9694C32.7161 22.206 29.5643 17.7654 25.9256 13.7394C25.1824 12.9571 24.2485 12.3816 23.2156 12.0694L22.2656 11.7894C21.6514 11.6007 21.0734 11.31 20.5556 10.9294L7.49563 1.08944C7.45689 1.05989 7.41271 1.03826 7.36561 1.02579C7.31852 1.01332 7.26942 1.01024 7.22114 1.01674C7.17285 1.02324 7.12632 1.03919 7.08419 1.06367C7.04207 1.08816 7.00518 1.1207 6.97563 1.15944C6.94609 1.19818 6.92446 1.24236 6.91198 1.28946C6.89951 1.33656 6.89644 1.38565 6.90294 1.43394C6.90944 1.48222 6.92538 1.52876 6.94987 1.57088C6.97435 1.613 7.00689 1.64989 7.04563 1.67944L20.1156 11.4794C20.6936 11.9262 21.3474 12.2649 22.0456 12.4794L22.9956 12.7694C23.9089 13.0381 24.7339 13.5455 25.3856 14.2394C28.9848 18.2234 32.1029 22.617 34.6756 27.3294C34.9481 27.8059 35.3157 28.2212 35.7556 28.5494L43.7556 34.5494C43.9997 34.7331 44.1646 35.0029 44.2166 35.304C44.2687 35.605 44.2039 35.9145 44.0356 36.1694C43.9493 36.3008 43.8376 36.4135 43.7071 36.5011C43.5766 36.5887 43.4299 36.6493 43.2756 36.6794C43.1213 36.7134 42.9617 36.715 42.8067 36.684C42.6518 36.653 42.505 36.5902 42.3756 36.4994L37.0356 32.9094L33.8556 30.0894C33.7814 30.0245 33.6843 29.9916 33.5859 29.9982C33.4874 30.0048 33.3956 30.0502 33.3306 30.1244C33.2657 30.1987 33.2328 30.2957 33.2394 30.3942C33.246 30.4926 33.2914 30.5845 33.3656 30.6494L45.7456 41.6494C45.8577 41.7476 45.949 41.8672 46.0142 42.0011C46.0795 42.1351 46.1174 42.2807 46.1256 42.4294C46.1452 42.6477 46.1009 42.867 45.9981 43.0605C45.8953 43.254 45.7384 43.4135 45.5466 43.5195C45.3548 43.6254 45.1363 43.6733 44.9177 43.6574C44.6992 43.6414 44.49 43.5622 44.3156 43.4294L39.9856 39.9794C37.2356 37.4494 34.8656 35.4794 31.8356 33.0794C31.7578 33.0209 31.6604 32.9945 31.5637 33.0056C31.4669 33.0168 31.3781 33.0647 31.3156 33.1394C31.2854 33.1775 31.263 33.2212 31.2497 33.2679C31.2363 33.3147 31.2323 33.3636 31.2379 33.4119C31.2435 33.4602 31.2585 33.5069 31.2821 33.5494C31.3058 33.5918 31.3375 33.6292 31.3756 33.6594C34.3756 36.0094 36.6656 37.9394 39.3756 40.3994C39.3756 40.3994 39.3756 40.3994 39.4256 40.3994L39.5356 40.4894C40.8756 41.7194 42.3056 43.0794 43.9656 44.7094C44.0656 44.7978 44.1468 44.9053 44.2046 45.0256C44.2624 45.1458 44.2955 45.2764 44.302 45.4097C44.3085 45.5429 44.2883 45.6762 44.2426 45.8015C44.1968 45.9268 44.1265 46.0417 44.0356 46.1394C43.8762 46.3264 43.6534 46.4481 43.41 46.4813C43.1665 46.5145 42.9193 46.4569 42.7156 46.3194L40.1856 44.6694H40.1056V44.5594C40.0898 44.3039 40.0223 44.0543 39.9072 43.8257C39.792 43.597 39.6316 43.3942 39.4356 43.2294L28.8756 34.5894C28.8375 34.5592 28.7939 34.5368 28.7471 34.5235C28.7004 34.5102 28.6515 34.5062 28.6032 34.5117C28.5549 34.5173 28.5082 34.5323 28.4657 34.556C28.4232 34.5796 28.3858 34.6114 28.3556 34.6494C28.3254 34.6875 28.303 34.7312 28.2897 34.7779C28.2764 34.8247 28.2724 34.8736 28.2779 34.9219C28.2835 34.9701 28.2985 35.0169 28.3222 35.0593C28.3458 35.1018 28.3776 35.1392 28.4156 35.1694L38.9156 43.7194C39.0329 43.8166 39.129 43.9369 39.1978 44.0728C39.2666 44.2087 39.3067 44.3574 39.3156 44.5094C39.3264 44.6634 39.3043 44.8179 39.2509 44.9627C39.1974 45.1076 39.1138 45.2394 39.0056 45.3494C38.8306 45.5323 38.5983 45.6498 38.3473 45.6826C38.0964 45.7153 37.8417 45.6613 37.6256 45.5294L23.1556 36.8494C23.3778 36.5439 23.5088 36.1816 23.5336 35.8047C23.5583 35.4277 23.4758 35.0515 23.2956 34.7194C23.1556 34.4694 23.0056 34.2194 22.8456 33.9794C22.2923 33.1914 21.5971 32.5131 20.7956 31.9794L18.7056 30.4894L18.1256 26.9994C18.0455 26.698 18.0455 26.3809 18.1256 26.0794L18.5256 24.5594C18.5501 24.4627 18.5354 24.3602 18.4849 24.2741C18.4344 24.188 18.352 24.1253 18.2556 24.0994C18.1603 24.0779 18.0603 24.094 17.9765 24.1443C17.8927 24.1946 17.8315 24.2752 17.8056 24.3694L17.4056 25.8994C17.2953 26.3122 17.2953 26.7467 17.4056 27.1594L17.9656 30.6094C18.007 30.8284 18.1327 31.0223 18.3156 31.1494L20.3756 32.5594C21.1046 33.0519 21.7353 33.6759 22.2356 34.3994C22.3756 34.6194 22.5156 34.8394 22.6456 35.0794C22.7706 35.3123 22.821 35.5779 22.7901 35.8403C22.7592 36.1027 22.6484 36.3493 22.4728 36.5468C22.2972 36.7442 22.0652 36.883 21.8081 36.9442C21.5511 37.0055 21.2814 36.9864 21.0356 36.8894L15.4356 34.5394C15.0662 34.3875 14.7308 34.1632 14.4492 33.8799C14.1676 33.5965 13.9454 33.2598 13.7956 32.8894L11.4156 26.9594C11.0756 26.1217 11.0057 25.1988 11.2156 24.3194L13.3256 16.0094C13.3376 15.9622 13.3401 15.913 13.333 15.8647C13.3259 15.8165 13.3093 15.7701 13.2842 15.7283C13.2591 15.6865 13.226 15.65 13.1868 15.621C13.1476 15.5921 13.103 15.5711 13.0556 15.5594C13.0084 15.5475 12.9592 15.545 12.9109 15.5521C12.8627 15.5592 12.8163 15.5758 12.7745 15.6009C12.7327 15.6259 12.6962 15.6591 12.6672 15.6983C12.6383 15.7375 12.6173 15.7821 12.6056 15.8294L12.1456 17.6494C10.2156 16.0694 1.58563 11.1594 1.20563 10.9394C1.11944 10.8904 1.01728 10.8776 0.921639 10.9038C0.825995 10.9301 0.744699 10.9932 0.695634 11.0794C0.646569 11.1656 0.633754 11.2678 0.660009 11.3634C0.686264 11.4591 0.749438 11.5404 0.835634 11.5894C4.22563 13.5094 10.8956 17.4194 11.8356 18.3994C11.8356 18.3994 11.8956 18.3994 11.9156 18.3994L10.4956 24.1394C10.2557 25.1722 10.3359 26.2534 10.7256 27.2394L13.1056 33.1694C13.2956 33.6292 13.5745 34.047 13.9263 34.3988C14.2781 34.7506 14.6958 35.0295 15.1556 35.2194L20.7456 37.5794C20.9939 37.6781 21.2585 37.729 21.5256 37.7294C21.9163 37.7265 22.2979 37.612 22.6256 37.3994L37.2456 46.1694C37.6063 46.3898 38.0318 46.4792 38.4507 46.4228C38.8695 46.3663 39.2562 46.1674 39.5456 45.8594C39.6882 45.7071 39.8033 45.5312 39.8856 45.3394L42.2556 46.8794C42.6155 47.1037 43.0442 47.1905 43.4629 47.1239C43.8817 47.0573 44.2623 46.8417 44.5348 46.5169C44.8073 46.1921 44.9534 45.7798 44.9462 45.3559C44.939 44.9319 44.779 44.5248 44.4956 44.2094C44.6488 44.2522 44.8067 44.2758 44.9656 44.2794C45.2311 44.2815 45.494 44.2273 45.737 44.1205C45.9801 44.0136 46.1977 43.8565 46.3756 43.6594Z" stroke="white" mask="url(#path-1-outside-1)"/>
<path d="M28.2421 23.7938L28.2423 23.7939C28.3367 23.662 28.479 23.5723 28.6388 23.5441C28.7986 23.5159 28.963 23.5515 29.0969 23.6431L29.0988 23.6445L29.0988 23.6445C29.2332 23.7384 29.3257 23.8809 29.3566 24.0419C29.3875 24.2025 29.3547 24.3688 29.2653 24.5056C27.6346 27.0395 25.4911 29.2035 22.9729 30.8583L22.9644 30.8639L22.9555 30.8688C22.8524 30.9252 22.736 30.953 22.6185 30.9493M28.2421 23.7938L22.6256 30.6994M28.2421 23.7938L28.2359 23.8033C26.6918 26.1837 24.6771 28.2229 22.3157 29.7956M28.2421 23.7938L22.3157 29.7956M22.6185 30.9493C22.6182 30.9493 22.6178 30.9493 22.6175 30.9493L22.6256 30.6994M22.6185 30.9493C22.6189 30.9493 22.6192 30.9493 22.6196 30.9493L22.6256 30.6994M22.6185 30.9493C22.5109 30.9465 22.4057 30.9162 22.3132 30.8612C22.2206 30.8063 22.1436 30.7285 22.0897 30.6353M22.6256 30.6994C22.5605 30.6978 22.4968 30.6795 22.4408 30.6463C22.3847 30.613 22.3382 30.5659 22.3056 30.5094M22.0897 30.6353C22.0899 30.6357 22.0901 30.636 22.0902 30.6363L22.3056 30.5094M22.0897 30.6353C22.0483 30.5648 22.0215 30.4867 22.0109 30.4056C22.0003 30.3241 22.0062 30.2413 22.0284 30.1622C22.0505 30.083 22.0885 30.0092 22.1399 29.9451C22.1884 29.8845 22.2481 29.8337 22.3157 29.7956M22.0897 30.6353C22.0895 30.635 22.0893 30.6347 22.0891 30.6343L22.3056 30.5094M22.3056 30.5094L22.3157 29.7956" fill="white" stroke="white" stroke-width="0.5"/>
<path d="M23.7156 25.0393L23.7165 25.0393C23.8572 25.0388 23.9937 24.9904 24.1033 24.9021C24.2127 24.814 24.2889 24.6914 24.3195 24.5543C24.8512 22.1993 24.9575 19.7682 24.6333 17.3757L24.6323 17.3681L24.6308 17.3606C24.5987 17.1986 24.5042 17.0558 24.3678 16.9628C24.2314 16.8697 24.0639 16.834 23.9014 16.8632L23.9013 16.8632L23.897 16.864C23.8164 16.88 23.7398 16.9118 23.6716 16.9577C23.6034 17.0035 23.545 17.0624 23.4998 17.131C23.4546 17.1996 23.4235 17.2765 23.4082 17.3573C23.3937 17.4344 23.3939 17.5135 23.4089 17.5904C23.7023 19.8256 23.5983 22.0951 23.1018 24.2942L23.1016 24.2942L23.0998 24.3037C23.0701 24.4638 23.1036 24.6293 23.1932 24.7653C23.2829 24.9013 23.4217 24.9973 23.5806 25.0331L23.6078 25.0393H23.6356L23.7156 25.0393Z" fill="white" stroke="white" stroke-width="0.5"/>
<mask id="path-4-outside-2" maskUnits="userSpaceOnUse" x="47.0912" y="0" width="48" height="48" fill="black">
<rect fill="white" x="47.0912" width="48" height="48"/>
<path d="M94.2956 11.0794C94.2717 11.0363 94.2394 10.9984 94.2007 10.968C94.162 10.9376 94.1175 10.9152 94.07 10.9021C94.0225 10.8891 93.9729 10.8857 93.9241 10.8921C93.8752 10.8985 93.8282 10.9145 93.7856 10.9394C93.4056 11.1594 84.7856 16.0694 82.8456 17.6494L82.3856 15.7894C82.3738 15.7421 82.3528 15.6976 82.3238 15.6585C82.2948 15.6193 82.2583 15.5862 82.2165 15.5612C82.1747 15.5361 82.1284 15.5195 82.0802 15.5123C82.032 15.5052 81.9829 15.5075 81.9356 15.5194C81.8883 15.5312 81.8438 15.5522 81.8047 15.5812C81.7655 15.6102 81.7325 15.6467 81.7074 15.6885C81.6823 15.7302 81.6657 15.7765 81.6586 15.8247C81.6514 15.873 81.6538 15.9221 81.6656 15.9694L83.7756 24.2694C83.9857 25.152 83.9158 26.0782 83.5756 26.9194L81.2056 32.8894C80.8909 33.6364 80.2945 34.2292 79.5456 34.5394L73.9656 36.8894C73.7193 36.9896 73.448 37.0112 73.189 36.9513C72.9299 36.8914 72.6956 36.7529 72.5183 36.5548C72.341 36.3566 72.2292 36.1085 72.1983 35.8444C72.1674 35.5803 72.2188 35.3131 72.3456 35.0794C72.4756 34.8394 72.6156 34.6194 72.7556 34.3994C73.2559 33.6758 73.8867 33.0518 74.6156 32.5594L76.6756 31.1494C76.8555 31.0193 76.9804 30.8267 77.0256 30.6094L77.5856 27.1994C77.6957 26.773 77.6957 26.3257 77.5856 25.8994L77.1856 24.3694C77.1597 24.2751 77.0985 24.1945 77.0147 24.1442C76.9309 24.0939 76.8309 24.0779 76.7356 24.0994C76.6392 24.1252 76.5569 24.188 76.5063 24.274C76.4558 24.3601 76.4412 24.4626 76.4656 24.5594L76.8656 26.0794C76.9574 26.4064 76.9574 26.7524 76.8656 27.0794L76.2656 30.5694L74.1956 31.9494C73.412 32.4879 72.7341 33.1658 72.1956 33.9494C72.0356 34.1894 71.8856 34.4394 71.7456 34.6894C71.5654 35.0214 71.4829 35.3976 71.5077 35.7746C71.5325 36.1516 71.6635 36.5138 71.8856 36.8194L57.3656 45.5294C57.1495 45.6612 56.8949 45.7152 56.6439 45.6825C56.3929 45.6498 56.1606 45.5322 55.9856 45.3494C55.8774 45.2393 55.7938 45.1075 55.7404 44.9627C55.6869 44.8179 55.6649 44.6633 55.6756 44.5094C55.6845 44.3573 55.7246 44.2087 55.7934 44.0728C55.8622 43.9368 55.9583 43.8166 56.0756 43.7194L66.5756 35.1694C66.6525 35.1084 66.7021 35.0193 66.7133 34.9218C66.7246 34.8243 66.6966 34.7263 66.6356 34.6494C66.5746 34.5725 66.4855 34.5229 66.388 34.5117C66.2905 34.5004 66.1925 34.5284 66.1156 34.5894L55.6056 43.1494C55.4091 43.3114 55.2481 43.5123 55.1328 43.7394C55.0175 43.9666 54.9504 44.2151 54.9356 44.4694V44.5794H54.8556L52.3256 46.2294C52.1219 46.3668 51.8747 46.4244 51.6313 46.3912C51.3878 46.358 51.1651 46.2363 51.0056 46.0494C50.9138 45.9508 50.8429 45.8347 50.797 45.7081C50.7512 45.5814 50.7314 45.4468 50.7389 45.3123C50.7464 45.1778 50.7809 45.0463 50.8405 44.9255C50.9001 44.8047 50.9835 44.6972 51.0856 44.6094C52.7356 42.9894 54.1656 41.6094 55.5056 40.3994L55.6156 40.3094C58.3056 37.8494 60.6156 35.9194 63.6156 33.5694C63.6925 33.5084 63.7421 33.4193 63.7533 33.3218C63.7646 33.2243 63.7366 33.1263 63.6756 33.0494C63.6454 33.0113 63.608 32.9795 63.5655 32.9559C63.523 32.9323 63.4763 32.9172 63.428 32.9117C63.3305 32.9004 63.2325 32.9284 63.1556 32.9894C60.1556 35.3894 57.7556 37.3594 55.0056 39.8794L50.6956 43.3094C50.4715 43.4825 50.1901 43.5644 49.9081 43.5384C49.626 43.5124 49.3643 43.3806 49.1756 43.1694C48.9744 42.9451 48.8701 42.6503 48.8856 42.3494C48.8939 42.2006 48.9318 42.055 48.997 41.9211C49.0623 41.7871 49.1536 41.6676 49.2656 41.5694L61.6456 30.5694C61.7199 30.5044 61.7653 30.4126 61.7718 30.3141C61.7784 30.2157 61.7456 30.1186 61.6806 30.0444C61.6156 29.9701 61.5238 29.9247 61.4254 29.9181C61.3269 29.9116 61.2299 29.9444 61.1556 30.0094L57.9756 32.8294L52.6456 36.4194C52.5144 36.5078 52.3671 36.5695 52.212 36.6008C52.0569 36.6321 51.8972 36.6324 51.742 36.6017C51.5868 36.5711 51.4391 36.51 51.3076 36.4221C51.1761 36.3341 51.0633 36.2211 50.9756 36.0894C50.8073 35.8344 50.7426 35.5249 50.7946 35.2239C50.8466 34.9229 51.0115 34.653 51.2556 34.4694L59.2556 28.4694C59.6955 28.1411 60.0631 27.7258 60.3356 27.2494C62.9083 22.5369 66.0264 18.1434 69.6256 14.1594C70.2834 13.5049 71.1002 13.0328 71.9956 12.7894L72.9956 12.4994C73.6939 12.2849 74.3477 11.9461 74.9256 11.4994L87.9956 1.69937C88.0765 1.63306 88.1277 1.53734 88.138 1.43326C88.1484 1.32918 88.1169 1.22526 88.0506 1.14437C87.9843 1.06348 87.8886 1.01224 87.7845 1.00192C87.6804 0.991609 87.5765 1.02306 87.4956 1.08937L74.4356 10.8894C73.9179 11.2699 73.3398 11.5606 72.7256 11.7494L71.7256 12.0394C70.6927 12.3515 69.7588 12.9271 69.0156 13.7094C65.3769 17.7353 62.2252 22.1759 59.6256 26.9394C59.4042 27.3297 59.1046 27.6702 58.7456 27.9394L50.7456 33.9394C50.4431 34.1625 50.2124 34.4691 50.0818 34.8215C49.9511 35.174 49.9262 35.5569 50.0101 35.9232C50.094 36.2896 50.283 36.6235 50.554 36.884C50.825 37.1444 51.1662 37.3201 51.5356 37.3894C51.6618 37.4041 51.7894 37.4041 51.9156 37.3894C52.3006 37.3907 52.6771 37.2757 52.9956 37.0594L53.7256 36.5594L48.7256 40.9894C48.5406 41.1514 48.3895 41.3486 48.2812 41.5695C48.1729 41.7903 48.1095 42.0304 48.0946 42.276C48.0797 42.5215 48.1137 42.7675 48.1945 42.9999C48.2754 43.2322 48.4015 43.4461 48.5656 43.6294C48.7424 43.8251 48.9584 43.9815 49.1996 44.0883C49.4408 44.1952 49.7018 44.25 49.9656 44.2494C50.1246 44.2464 50.2826 44.2229 50.4356 44.1794C50.1458 44.4945 49.9808 44.9045 49.9716 45.3326C49.9623 45.7606 50.1094 46.1774 50.3853 46.5048C50.6612 46.8322 51.047 47.0478 51.4704 47.1112C51.8939 47.1746 52.3259 47.0816 52.6856 46.8494L55.0556 45.3094C55.1379 45.5011 55.253 45.6771 55.3956 45.8294C55.6851 46.1373 56.0717 46.3363 56.4906 46.3927C56.9094 46.4492 57.3349 46.3597 57.6956 46.1394L72.3156 37.3694C72.6433 37.5819 73.025 37.6964 73.4156 37.6994C73.6837 37.6989 73.949 37.6444 74.1956 37.5394L79.7856 35.1894C80.6954 34.7948 81.4136 34.0586 81.7856 33.1394L84.1656 27.2094C84.5835 26.2394 84.6985 25.1658 84.4956 24.1294L83.0456 18.4294C83.0456 18.4294 83.0456 18.4294 83.1256 18.4294C84.1256 17.4294 90.7656 13.5394 94.1256 11.6194C94.1754 11.5986 94.22 11.5673 94.2564 11.5275C94.2928 11.4876 94.3201 11.4404 94.3363 11.3889C94.3524 11.3375 94.3572 11.2831 94.3502 11.2296C94.3432 11.1762 94.3245 11.1249 94.2956 11.0794Z"/>
</mask>
<path d="M94.2956 11.0794C94.2717 11.0363 94.2394 10.9984 94.2007 10.968C94.162 10.9376 94.1175 10.9152 94.07 10.9021C94.0225 10.8891 93.9729 10.8857 93.9241 10.8921C93.8752 10.8985 93.8282 10.9145 93.7856 10.9394C93.4056 11.1594 84.7856 16.0694 82.8456 17.6494L82.3856 15.7894C82.3738 15.7421 82.3528 15.6976 82.3238 15.6585C82.2948 15.6193 82.2583 15.5862 82.2165 15.5612C82.1747 15.5361 82.1284 15.5195 82.0802 15.5123C82.032 15.5052 81.9829 15.5075 81.9356 15.5194C81.8883 15.5312 81.8438 15.5522 81.8047 15.5812C81.7655 15.6102 81.7325 15.6467 81.7074 15.6885C81.6823 15.7302 81.6657 15.7765 81.6586 15.8247C81.6514 15.873 81.6538 15.9221 81.6656 15.9694L83.7756 24.2694C83.9857 25.152 83.9158 26.0782 83.5756 26.9194L81.2056 32.8894C80.8909 33.6364 80.2945 34.2292 79.5456 34.5394L73.9656 36.8894C73.7193 36.9896 73.448 37.0112 73.189 36.9513C72.9299 36.8914 72.6956 36.7529 72.5183 36.5548C72.341 36.3566 72.2292 36.1085 72.1983 35.8444C72.1674 35.5803 72.2188 35.3131 72.3456 35.0794C72.4756 34.8394 72.6156 34.6194 72.7556 34.3994C73.2559 33.6758 73.8867 33.0518 74.6156 32.5594L76.6756 31.1494C76.8555 31.0193 76.9804 30.8267 77.0256 30.6094L77.5856 27.1994C77.6957 26.773 77.6957 26.3257 77.5856 25.8994L77.1856 24.3694C77.1597 24.2751 77.0985 24.1945 77.0147 24.1442C76.9309 24.0939 76.8309 24.0779 76.7356 24.0994C76.6392 24.1252 76.5569 24.188 76.5063 24.274C76.4558 24.3601 76.4412 24.4626 76.4656 24.5594L76.8656 26.0794C76.9574 26.4064 76.9574 26.7524 76.8656 27.0794L76.2656 30.5694L74.1956 31.9494C73.412 32.4879 72.7341 33.1658 72.1956 33.9494C72.0356 34.1894 71.8856 34.4394 71.7456 34.6894C71.5654 35.0214 71.4829 35.3976 71.5077 35.7746C71.5325 36.1516 71.6635 36.5138 71.8856 36.8194L57.3656 45.5294C57.1495 45.6612 56.8949 45.7152 56.6439 45.6825C56.3929 45.6498 56.1606 45.5322 55.9856 45.3494C55.8774 45.2393 55.7938 45.1075 55.7404 44.9627C55.6869 44.8179 55.6649 44.6633 55.6756 44.5094C55.6845 44.3573 55.7246 44.2087 55.7934 44.0728C55.8622 43.9368 55.9583 43.8166 56.0756 43.7194L66.5756 35.1694C66.6525 35.1084 66.7021 35.0193 66.7133 34.9218C66.7246 34.8243 66.6966 34.7263 66.6356 34.6494C66.5746 34.5725 66.4855 34.5229 66.388 34.5117C66.2905 34.5004 66.1925 34.5284 66.1156 34.5894L55.6056 43.1494C55.4091 43.3114 55.2481 43.5123 55.1328 43.7394C55.0175 43.9666 54.9504 44.2151 54.9356 44.4694V44.5794H54.8556L52.3256 46.2294C52.1219 46.3668 51.8747 46.4244 51.6313 46.3912C51.3878 46.358 51.1651 46.2363 51.0056 46.0494C50.9138 45.9508 50.8429 45.8347 50.797 45.7081C50.7512 45.5814 50.7314 45.4468 50.7389 45.3123C50.7464 45.1778 50.7809 45.0463 50.8405 44.9255C50.9001 44.8047 50.9835 44.6972 51.0856 44.6094C52.7356 42.9894 54.1656 41.6094 55.5056 40.3994L55.6156 40.3094C58.3056 37.8494 60.6156 35.9194 63.6156 33.5694C63.6925 33.5084 63.7421 33.4193 63.7533 33.3218C63.7646 33.2243 63.7366 33.1263 63.6756 33.0494C63.6454 33.0113 63.608 32.9795 63.5655 32.9559C63.523 32.9323 63.4763 32.9172 63.428 32.9117C63.3305 32.9004 63.2325 32.9284 63.1556 32.9894C60.1556 35.3894 57.7556 37.3594 55.0056 39.8794L50.6956 43.3094C50.4715 43.4825 50.1901 43.5644 49.9081 43.5384C49.626 43.5124 49.3643 43.3806 49.1756 43.1694C48.9744 42.9451 48.8701 42.6503 48.8856 42.3494C48.8939 42.2006 48.9318 42.055 48.997 41.9211C49.0623 41.7871 49.1536 41.6676 49.2656 41.5694L61.6456 30.5694C61.7199 30.5044 61.7653 30.4126 61.7718 30.3141C61.7784 30.2157 61.7456 30.1186 61.6806 30.0444C61.6156 29.9701 61.5238 29.9247 61.4254 29.9181C61.3269 29.9116 61.2299 29.9444 61.1556 30.0094L57.9756 32.8294L52.6456 36.4194C52.5144 36.5078 52.3671 36.5695 52.212 36.6008C52.0569 36.6321 51.8972 36.6324 51.742 36.6017C51.5868 36.5711 51.4391 36.51 51.3076 36.4221C51.1761 36.3341 51.0633 36.2211 50.9756 36.0894C50.8073 35.8344 50.7426 35.5249 50.7946 35.2239C50.8466 34.9229 51.0115 34.653 51.2556 34.4694L59.2556 28.4694C59.6955 28.1411 60.0631 27.7258 60.3356 27.2494C62.9083 22.5369 66.0264 18.1434 69.6256 14.1594C70.2834 13.5049 71.1002 13.0328 71.9956 12.7894L72.9956 12.4994C73.6939 12.2849 74.3477 11.9461 74.9256 11.4994L87.9956 1.69937C88.0765 1.63306 88.1277 1.53734 88.138 1.43326C88.1484 1.32918 88.1169 1.22526 88.0506 1.14437C87.9843 1.06348 87.8886 1.01224 87.7845 1.00192C87.6804 0.991609 87.5765 1.02306 87.4956 1.08937L74.4356 10.8894C73.9179 11.2699 73.3398 11.5606 72.7256 11.7494L71.7256 12.0394C70.6927 12.3515 69.7588 12.9271 69.0156 13.7094C65.3769 17.7353 62.2252 22.1759 59.6256 26.9394C59.4042 27.3297 59.1046 27.6702 58.7456 27.9394L50.7456 33.9394C50.4431 34.1625 50.2124 34.4691 50.0818 34.8215C49.9511 35.174 49.9262 35.5569 50.0101 35.9232C50.094 36.2896 50.283 36.6235 50.554 36.884C50.825 37.1444 51.1662 37.3201 51.5356 37.3894C51.6618 37.4041 51.7894 37.4041 51.9156 37.3894C52.3006 37.3907 52.6771 37.2757 52.9956 37.0594L53.7256 36.5594L48.7256 40.9894C48.5406 41.1514 48.3895 41.3486 48.2812 41.5695C48.1729 41.7903 48.1095 42.0304 48.0946 42.276C48.0797 42.5215 48.1137 42.7675 48.1945 42.9999C48.2754 43.2322 48.4015 43.4461 48.5656 43.6294C48.7424 43.8251 48.9584 43.9815 49.1996 44.0883C49.4408 44.1952 49.7018 44.25 49.9656 44.2494C50.1246 44.2464 50.2826 44.2229 50.4356 44.1794C50.1458 44.4945 49.9808 44.9045 49.9716 45.3326C49.9623 45.7606 50.1094 46.1774 50.3853 46.5048C50.6612 46.8322 51.047 47.0478 51.4704 47.1112C51.8939 47.1746 52.3259 47.0816 52.6856 46.8494L55.0556 45.3094C55.1379 45.5011 55.253 45.6771 55.3956 45.8294C55.6851 46.1373 56.0717 46.3363 56.4906 46.3927C56.9094 46.4492 57.3349 46.3597 57.6956 46.1394L72.3156 37.3694C72.6433 37.5819 73.025 37.6964 73.4156 37.6994C73.6837 37.6989 73.949 37.6444 74.1956 37.5394L79.7856 35.1894C80.6954 34.7948 81.4136 34.0586 81.7856 33.1394L84.1656 27.2094C84.5835 26.2394 84.6985 25.1658 84.4956 24.1294L83.0456 18.4294C83.0456 18.4294 83.0456 18.4294 83.1256 18.4294C84.1256 17.4294 90.7656 13.5394 94.1256 11.6194C94.1754 11.5986 94.22 11.5673 94.2564 11.5275C94.2928 11.4876 94.3201 11.4404 94.3363 11.3889C94.3524 11.3375 94.3572 11.2831 94.3502 11.2296C94.3432 11.1762 94.3245 11.1249 94.2956 11.0794Z" fill="white"/>
<path d="M94.2956 11.0794C94.2717 11.0363 94.2394 10.9984 94.2007 10.968C94.162 10.9376 94.1175 10.9152 94.07 10.9021C94.0225 10.8891 93.9729 10.8857 93.9241 10.8921C93.8752 10.8985 93.8282 10.9145 93.7856 10.9394C93.4056 11.1594 84.7856 16.0694 82.8456 17.6494L82.3856 15.7894C82.3738 15.7421 82.3528 15.6976 82.3238 15.6585C82.2948 15.6193 82.2583 15.5862 82.2165 15.5612C82.1747 15.5361 82.1284 15.5195 82.0802 15.5123C82.032 15.5052 81.9829 15.5075 81.9356 15.5194C81.8883 15.5312 81.8438 15.5522 81.8047 15.5812C81.7655 15.6102 81.7325 15.6467 81.7074 15.6885C81.6823 15.7302 81.6657 15.7765 81.6586 15.8247C81.6514 15.873 81.6538 15.9221 81.6656 15.9694L83.7756 24.2694C83.9857 25.152 83.9158 26.0782 83.5756 26.9194L81.2056 32.8894C80.8909 33.6364 80.2945 34.2292 79.5456 34.5394L73.9656 36.8894C73.7193 36.9896 73.448 37.0112 73.189 36.9513C72.9299 36.8914 72.6956 36.7529 72.5183 36.5548C72.341 36.3566 72.2292 36.1085 72.1983 35.8444C72.1674 35.5803 72.2188 35.3131 72.3456 35.0794C72.4756 34.8394 72.6156 34.6194 72.7556 34.3994C73.2559 33.6758 73.8867 33.0518 74.6156 32.5594L76.6756 31.1494C76.8555 31.0193 76.9804 30.8267 77.0256 30.6094L77.5856 27.1994C77.6957 26.773 77.6957 26.3257 77.5856 25.8994L77.1856 24.3694C77.1597 24.2751 77.0985 24.1945 77.0147 24.1442C76.9309 24.0939 76.8309 24.0779 76.7356 24.0994C76.6392 24.1252 76.5569 24.188 76.5063 24.274C76.4558 24.3601 76.4412 24.4626 76.4656 24.5594L76.8656 26.0794C76.9574 26.4064 76.9574 26.7524 76.8656 27.0794L76.2656 30.5694L74.1956 31.9494C73.412 32.4879 72.7341 33.1658 72.1956 33.9494C72.0356 34.1894 71.8856 34.4394 71.7456 34.6894C71.5654 35.0214 71.4829 35.3976 71.5077 35.7746C71.5325 36.1516 71.6635 36.5138 71.8856 36.8194L57.3656 45.5294C57.1495 45.6612 56.8949 45.7152 56.6439 45.6825C56.3929 45.6498 56.1606 45.5322 55.9856 45.3494C55.8774 45.2393 55.7938 45.1075 55.7404 44.9627C55.6869 44.8179 55.6649 44.6633 55.6756 44.5094C55.6845 44.3573 55.7246 44.2087 55.7934 44.0728C55.8622 43.9368 55.9583 43.8166 56.0756 43.7194L66.5756 35.1694C66.6525 35.1084 66.7021 35.0193 66.7133 34.9218C66.7246 34.8243 66.6966 34.7263 66.6356 34.6494C66.5746 34.5725 66.4855 34.5229 66.388 34.5117C66.2905 34.5004 66.1925 34.5284 66.1156 34.5894L55.6056 43.1494C55.4091 43.3114 55.2481 43.5123 55.1328 43.7394C55.0175 43.9666 54.9504 44.2151 54.9356 44.4694V44.5794H54.8556L52.3256 46.2294C52.1219 46.3668 51.8747 46.4244 51.6313 46.3912C51.3878 46.358 51.1651 46.2363 51.0056 46.0494C50.9138 45.9508 50.8429 45.8347 50.797 45.7081C50.7512 45.5814 50.7314 45.4468 50.7389 45.3123C50.7464 45.1778 50.7809 45.0463 50.8405 44.9255C50.9001 44.8047 50.9835 44.6972 51.0856 44.6094C52.7356 42.9894 54.1656 41.6094 55.5056 40.3994L55.6156 40.3094C58.3056 37.8494 60.6156 35.9194 63.6156 33.5694C63.6925 33.5084 63.7421 33.4193 63.7533 33.3218C63.7646 33.2243 63.7366 33.1263 63.6756 33.0494C63.6454 33.0113 63.608 32.9795 63.5655 32.9559C63.523 32.9323 63.4763 32.9172 63.428 32.9117C63.3305 32.9004 63.2325 32.9284 63.1556 32.9894C60.1556 35.3894 57.7556 37.3594 55.0056 39.8794L50.6956 43.3094C50.4715 43.4825 50.1901 43.5644 49.9081 43.5384C49.626 43.5124 49.3643 43.3806 49.1756 43.1694C48.9744 42.9451 48.8701 42.6503 48.8856 42.3494C48.8939 42.2006 48.9318 42.055 48.997 41.9211C49.0623 41.7871 49.1536 41.6676 49.2656 41.5694L61.6456 30.5694C61.7199 30.5044 61.7653 30.4126 61.7718 30.3141C61.7784 30.2157 61.7456 30.1186 61.6806 30.0444C61.6156 29.9701 61.5238 29.9247 61.4254 29.9181C61.3269 29.9116 61.2299 29.9444 61.1556 30.0094L57.9756 32.8294L52.6456 36.4194C52.5144 36.5078 52.3671 36.5695 52.212 36.6008C52.0569 36.6321 51.8972 36.6324 51.742 36.6017C51.5868 36.5711 51.4391 36.51 51.3076 36.4221C51.1761 36.3341 51.0633 36.2211 50.9756 36.0894C50.8073 35.8344 50.7426 35.5249 50.7946 35.2239C50.8466 34.9229 51.0115 34.653 51.2556 34.4694L59.2556 28.4694C59.6955 28.1411 60.0631 27.7258 60.3356 27.2494C62.9083 22.5369 66.0264 18.1434 69.6256 14.1594C70.2834 13.5049 71.1002 13.0328 71.9956 12.7894L72.9956 12.4994C73.6939 12.2849 74.3477 11.9461 74.9256 11.4994L87.9956 1.69937C88.0765 1.63306 88.1277 1.53734 88.138 1.43326C88.1484 1.32918 88.1169 1.22526 88.0506 1.14437C87.9843 1.06348 87.8886 1.01224 87.7845 1.00192C87.6804 0.991609 87.5765 1.02306 87.4956 1.08937L74.4356 10.8894C73.9179 11.2699 73.3398 11.5606 72.7256 11.7494L71.7256 12.0394C70.6927 12.3515 69.7588 12.9271 69.0156 13.7094C65.3769 17.7353 62.2252 22.1759 59.6256 26.9394C59.4042 27.3297 59.1046 27.6702 58.7456 27.9394L50.7456 33.9394C50.4431 34.1625 50.2124 34.4691 50.0818 34.8215C49.9511 35.174 49.9262 35.5569 50.0101 35.9232C50.094 36.2896 50.283 36.6235 50.554 36.884C50.825 37.1444 51.1662 37.3201 51.5356 37.3894C51.6618 37.4041 51.7894 37.4041 51.9156 37.3894C52.3006 37.3907 52.6771 37.2757 52.9956 37.0594L53.7256 36.5594L48.7256 40.9894C48.5406 41.1514 48.3895 41.3486 48.2812 41.5695C48.1729 41.7903 48.1095 42.0304 48.0946 42.276C48.0797 42.5215 48.1137 42.7675 48.1945 42.9999C48.2754 43.2322 48.4015 43.4461 48.5656 43.6294C48.7424 43.8251 48.9584 43.9815 49.1996 44.0883C49.4408 44.1952 49.7018 44.25 49.9656 44.2494C50.1246 44.2464 50.2826 44.2229 50.4356 44.1794C50.1458 44.4945 49.9808 44.9045 49.9716 45.3326C49.9623 45.7606 50.1094 46.1774 50.3853 46.5048C50.6612 46.8322 51.047 47.0478 51.4704 47.1112C51.8939 47.1746 52.3259 47.0816 52.6856 46.8494L55.0556 45.3094C55.1379 45.5011 55.253 45.6771 55.3956 45.8294C55.6851 46.1373 56.0717 46.3363 56.4906 46.3927C56.9094 46.4492 57.3349 46.3597 57.6956 46.1394L72.3156 37.3694C72.6433 37.5819 73.025 37.6964 73.4156 37.6994C73.6837 37.6989 73.949 37.6444 74.1956 37.5394L79.7856 35.1894C80.6954 34.7948 81.4136 34.0586 81.7856 33.1394L84.1656 27.2094C84.5835 26.2394 84.6985 25.1658 84.4956 24.1294L83.0456 18.4294C83.0456 18.4294 83.0456 18.4294 83.1256 18.4294C84.1256 17.4294 90.7656 13.5394 94.1256 11.6194C94.1754 11.5986 94.22 11.5673 94.2564 11.5275C94.2928 11.4876 94.3201 11.4404 94.3363 11.3889C94.3524 11.3375 94.3572 11.2831 94.3502 11.2296C94.3432 11.1762 94.3245 11.1249 94.2956 11.0794Z" stroke="white" mask="url(#path-4-outside-2)"/>
<path d="M72.0383 30.9084L72.075 30.9325L72.1177 30.9426C72.2042 30.9632 72.2937 30.9661 72.381 30.9513C72.4725 30.9554 72.5639 30.9395 72.6489 30.9045C72.7475 30.8639 72.8341 30.7989 72.9008 30.7157L72.912 30.7018L72.921 30.6864C72.9627 30.6156 72.9897 30.5371 73.0004 30.4556C73.011 30.3741 73.005 30.2913 72.9829 30.2122C72.9607 30.1331 72.9228 30.0593 72.8714 29.9952C72.8228 29.9345 72.7631 29.8838 72.6956 29.8456C70.3342 28.2729 68.3195 26.2337 66.7754 23.8534L66.7756 23.8533L66.769 23.844C66.6746 23.712 66.5322 23.6223 66.3725 23.5942C66.2127 23.566 66.0482 23.6015 65.9144 23.6932L65.9144 23.6932L65.9124 23.6945C65.7781 23.7884 65.6856 23.931 65.6546 24.0919C65.6238 24.2525 65.6565 24.4187 65.7459 24.5556C67.3767 27.0894 69.5202 29.2535 72.0383 30.9084Z" fill="white" stroke="white" stroke-width="0.5"/>
<path d="M71.2748 25.0393H71.2756H71.3556H71.3835L71.4107 25.0331C71.5696 24.9973 71.7084 24.9013 71.798 24.7653C71.8877 24.6293 71.9212 24.4638 71.8914 24.3037L71.8916 24.3036L71.8897 24.2949C71.3993 22.0946 71.2953 19.8259 71.5825 17.59C71.5973 17.5132 71.5975 17.4342 71.583 17.3573C71.5678 17.2765 71.5366 17.1996 71.4914 17.131C71.4462 17.0624 71.3878 17.0035 71.3196 16.9577C71.2514 16.9118 71.1748 16.88 71.0942 16.864L71.0942 16.864L71.0899 16.8632C70.9274 16.834 70.7599 16.8697 70.6235 16.9628C70.487 17.0558 70.3926 17.1986 70.3604 17.3606L70.3589 17.3681L70.3579 17.3757C70.0338 19.768 70.14 22.199 70.6717 24.5539C70.7022 24.6911 70.7785 24.8139 70.8879 24.9021C70.9976 24.9904 71.134 25.0388 71.2748 25.0393Z" fill="white" stroke="white" stroke-width="0.5"/>
</svg>
