<svg width="75" height="78" viewBox="0 0 75 78" fill="none" xmlns="http://www.w3.org/2000/svg">
    <path d="M74.6338 65.2501C74.6091 65.1413 74.5629 65.0386 74.498 64.9478C74.4331 64.8571 74.3508 64.7803 74.2558 64.7217L68.1807 60.918C65.4444 59.2051 62.6153 57.4337 60.6407 54.88C60.2015 54.1627 59.8292 53.4066 59.5284 52.6212C59.3165 52.127 59.1153 51.6612 58.9219 51.2589C58.3013 50.0256 57.5818 48.8447 56.7706 47.7276C56.3829 47.1661 55.9825 46.5841 55.5792 45.9415C55.1211 45.1108 54.5085 44.3753 53.7745 43.7745C52.6508 43.0817 51.3628 42.7008 50.043 42.671C49.6837 42.6329 49.3116 42.5938 48.9571 42.5362C48.1196 42.3805 47.3029 42.1282 46.5235 41.7842C46.252 41.6778 45.9718 41.5684 45.6719 41.458C45.2475 41.2847 44.8487 41.0544 44.4864 40.7735C44.1223 40.4748 43.7936 40.1353 43.5069 39.7617C43.1241 39.2605 42.6743 38.8143 42.17 38.4356C41.9455 38.2777 41.6845 38.1797 41.4116 38.1508C41.1387 38.122 40.863 38.1632 40.6104 38.2706C40.3952 38.366 40.2002 38.502 40.0362 38.671C38.7893 35.505 37.3501 32.4182 35.7266 29.4278C35.4783 28.164 35.0369 26.946 34.418 25.8165C33.8287 24.9205 33.0611 24.1556 32.1632 23.5694C31.7138 23.2495 31.2867 22.8994 30.8848 22.5215C29.3741 21.0313 27.7393 19.1573 26.1583 17.3438L25.8927 17.5753L25.6563 17.7813L26.0889 17.2647C24.4747 15.4122 22.8048 13.4971 21.2364 11.9493C20.9144 11.6635 20.6343 11.3338 20.4044 10.9698C20.3056 10.7767 20.221 10.5766 20.1515 10.3712C20.0711 10.1424 19.9792 9.91778 19.8761 9.6983C19.3464 8.70336 18.4467 7.95661 17.3712 7.6192C16.8348 7.41747 16.3325 7.13455 15.8819 6.78034C14.3536 5.41597 13.0536 3.81562 12.0314 2.0401C11.7013 1.53815 11.337 0.986385 10.9249 0.376035C10.8635 0.28235 10.7839 0.201987 10.6908 0.13974C10.5976 0.0774925 10.4929 0.0346362 10.3829 0.013726C10.1629 -0.0256613 9.93623 0.0204505 9.74912 0.142636C9.65694 0.204499 9.57787 0.283955 9.51647 0.376445C9.45507 0.468935 9.41253 0.572639 9.3913 0.681607C9.37007 0.790575 9.37056 0.902662 9.39275 1.01144C9.41494 1.12022 9.45839 1.22354 9.52061 1.31549C9.93174 1.92584 10.2931 2.47174 10.6202 2.96979C11.7242 4.88332 13.1311 6.6052 14.7862 8.06842C15.3634 8.53225 16.0091 8.90354 16.7003 9.16901C17.4933 9.51373 18.0167 9.7403 18.3565 10.4385C18.4366 10.6016 18.4972 10.7705 18.5821 10.9991C18.6768 11.2683 18.7907 11.5304 18.9229 11.7833C19.2291 12.2929 19.6089 12.7546 20.0499 13.1534C21.5724 14.6554 23.2208 16.546 24.8156 18.3751L24.8839 18.4542C26.4865 20.2911 28.1427 22.1895 29.6974 23.7237C30.1535 24.1583 30.6401 24.5597 31.1535 24.9249C31.8708 25.3823 32.4878 25.9807 32.9669 26.6837C33.5352 27.7638 33.9365 28.9238 34.1574 30.1241C34.255 30.5274 34.3527 30.9327 34.463 31.336C35.3983 34.3412 36.0243 37.4341 36.3312 40.5665C36.4579 42.6095 36.3058 44.6602 35.879 46.6622C35.7946 47.3886 35.4876 48.0711 35.0001 48.6163C34.8876 48.7085 34.7577 48.7772 34.6182 48.8185C34.4786 48.8597 34.3322 48.8727 34.1876 48.8565C34.1237 48.8528 34.0613 48.8356 34.0046 48.806C33.9478 48.7764 33.8981 48.735 33.8585 48.6846C33.7929 48.4913 33.7732 48.2854 33.801 48.0832C33.8288 47.881 33.9033 47.688 34.0187 47.5196C34.3665 46.8383 34.5976 46.1035 34.7023 45.3458C34.7501 44.8868 34.7693 44.4253 34.7599 43.964V43.9288C34.7639 43.5502 34.7308 43.1721 34.6613 42.7999L34.5333 42.2481C34.1265 39.8706 33.1808 37.6178 31.7687 35.6622C32.3639 32.8753 31.9448 29.9675 30.587 27.462C30.4908 27.2603 30.3186 27.1048 30.1081 27.0297C29.8976 26.9546 29.6659 26.9659 29.4637 27.0612C29.2615 27.1565 29.1053 27.328 29.0292 27.5382C28.9531 27.7483 28.9634 27.9801 29.0578 28.1827C30.5333 31.3438 30.5714 32.7765 29.9396 36.4073C29.3088 39.2482 28.2985 41.9913 26.9357 44.5626C26.6798 45.0987 26.2872 45.8165 25.837 45.8575C25.4474 45.8771 25.0656 45.339 25.0216 44.8614C25.027 44.179 25.1712 43.5049 25.4454 42.88L25.5587 42.5548C26.801 39.1928 27.1137 35.5581 26.464 32.0333C26.1578 30.7074 25.4449 29.5103 24.4249 28.6095C23.7939 28.0369 23.0764 27.5676 22.2989 27.2188L18.5987 25.339C17.1612 24.6386 15.9039 23.6172 14.9239 22.3536C14.8123 22.1592 14.628 22.0172 14.4117 21.9587C14.1953 21.9001 13.9645 21.93 13.7701 22.0416C13.5757 22.1532 13.4337 22.3375 13.3752 22.5539C13.3166 22.7703 13.3465 23.001 13.4581 23.1954C14.5841 25.1554 17.506 26.6798 17.836 26.8478L19.8243 27.8565C20.1489 30.0369 20.7067 32.1761 21.4883 34.2373C22.0176 35.699 22.4543 37.1925 22.7959 38.709C22.893 39.0582 22.9097 39.4248 22.8447 39.7813C22.7919 39.9027 22.7016 40.004 22.587 40.0703C22.4724 40.1365 22.3395 40.1643 22.208 40.1495C22.1683 40.1529 22.1285 40.1476 22.091 40.1341C22.0536 40.1206 22.0196 40.0992 21.9912 40.0714C20.9914 38.9941 20.221 37.725 19.7265 36.3409C19.3886 35.5366 19.0052 34.7521 18.5781 33.9913C18.3886 33.67 18.2216 33.3409 18.0234 32.9542C17.7009 32.2699 17.3144 31.6175 16.8691 31.006C15.3532 29.0301 13.959 26.9638 12.6943 24.8185C11.926 23.6728 11.4046 22.3797 11.1631 21.0216C11.1338 20.7413 11.1279 20.4493 11.1211 20.1505C11.1211 19.6726 11.0829 19.1955 11.0068 18.7237C10.5595 16.3067 8.74411 14.338 7.14255 12.6026L6.99899 12.4454C5.8447 11.1925 4.83591 10.1817 3.64255 8.98642L3.51169 8.85556C2.97848 8.32236 2.41403 7.75595 1.79294 7.12314C1.63572 6.96333 1.42147 6.87253 1.1973 6.8707C0.973138 6.86886 0.757427 6.95616 0.597623 7.11337C0.43782 7.27058 0.347013 7.48484 0.345182 7.70901C0.343351 7.93317 0.430644 8.14888 0.587858 8.30869C1.26364 8.99716 1.87204 9.60654 2.47165 10.2061C3.62692 11.3634 4.62497 12.3624 5.75583 13.5909L5.90036 13.7472C7.3477 15.3155 8.98632 17.0928 9.3447 19.0303C9.40383 19.4201 9.43256 19.8139 9.43063 20.2081C9.43942 20.5333 9.44821 20.8692 9.48337 21.2003C9.74199 22.8006 10.3404 24.3271 11.2382 25.6768C12.5382 27.8818 13.9711 30.0055 15.5292 32.0362C15.9178 32.5776 16.2552 33.154 16.5371 33.7579C16.7187 34.1153 16.9072 34.4835 17.1201 34.8477C17.5166 35.5586 17.873 36.2912 18.1874 37.0421C18.7655 38.6413 19.675 40.1003 20.8564 41.3233C21.2266 41.6622 21.7121 41.847 22.2139 41.84C22.7046 41.8556 23.1874 41.7132 23.5913 41.4339C23.9951 41.1545 24.2985 40.7529 24.457 40.2882C24.6171 39.6648 24.6167 39.011 24.456 38.3878C24.1003 36.798 23.644 35.2323 23.0898 33.7003C22.513 32.0976 22.0396 30.4594 21.6728 28.796C22.2411 29.0526 22.7672 29.3937 23.2334 29.8077C24.0019 30.475 24.5496 31.3602 24.8037 32.3458C25.3954 35.5824 25.1042 38.9187 23.9609 42.004L23.8506 42.3214C23.4851 43.1716 23.3104 44.0916 23.3389 45.0167C23.3761 45.6641 23.6454 46.2764 24.0974 46.7414C24.5493 47.2065 25.1537 47.4931 25.7998 47.5489C25.8574 47.5489 25.915 47.5469 25.9853 47.5411C27.4512 47.4102 28.1846 45.8692 28.4599 45.2901C28.7656 44.6485 29.081 43.9864 29.3916 43.3047C29.4059 43.7869 29.4681 44.2665 29.5771 44.7364L29.6269 44.9932C29.8249 46.0574 29.814 47.15 29.5947 48.21C29.4529 48.7091 29.4566 49.2383 29.6055 49.7354C29.7405 50.0692 29.9468 50.3695 30.2099 50.6153C30.546 50.9662 30.9212 51.2775 31.3281 51.543L31.3369 51.5762C31.6013 52.5399 31.7333 53.535 31.7295 54.5342C31.7295 54.7129 31.7246 54.8916 31.7197 55.0704C31.672 55.7797 31.7209 56.4923 31.8652 57.1885C31.9717 57.6591 32.1828 58.0998 32.4829 58.4776C32.783 58.8555 33.1643 59.1609 33.5986 59.3711L33.7832 60.6573C33.847 61.3854 34.0492 62.0947 34.3789 62.7471C34.776 63.3669 35.295 63.8995 35.9043 64.3125C38.4035 66.1145 41.1031 67.6207 43.9492 68.8008C46.9046 70.0403 50.0538 70.7538 53.2549 70.9092C55.7582 70.9904 58.1959 71.7301 60.3222 73.0537C60.6211 73.2637 60.9238 73.4649 61.2256 73.667L61.3174 73.7276C61.8418 74.0772 62.3838 74.4395 62.875 74.8272L66.1484 77.4102C66.3244 77.549 66.5483 77.6122 66.771 77.586C66.9936 77.5597 67.1966 77.446 67.3354 77.2701C67.4743 77.0941 67.5375 76.8701 67.5112 76.6475C67.4849 76.4249 67.3713 76.2219 67.1953 76.083L63.9219 73.5C63.3623 73.0586 62.7783 72.67 62.2149 72.295C61.9063 72.0899 61.5977 71.8838 61.294 71.67C58.8891 70.1476 56.1185 69.3012 53.2735 69.2198C50.3098 69.0558 47.3948 68.3946 44.6505 67.2637C41.9188 66.1324 39.3266 64.6903 36.9249 62.9659C36.5001 62.685 36.1334 62.3249 35.8447 61.9053C35.6262 61.4372 35.4945 60.9332 35.456 60.418L34.5498 54.0801C34.4316 53.253 34.4863 52.7491 34.7109 52.5831C34.7556 52.5537 34.8063 52.5345 34.8593 52.5269C34.9123 52.5193 34.9663 52.5235 35.0175 52.5391C35.3063 52.6096 35.5561 52.7901 35.7138 53.0421C35.9773 53.601 36.1216 54.2086 36.1377 54.8262C36.1523 54.9717 36.1679 55.1153 36.1855 55.252C36.4002 57.0091 36.9481 58.7091 37.7998 60.2608C37.8534 60.3585 37.9259 60.4445 38.0131 60.5139C38.1003 60.5833 38.2004 60.6347 38.3076 60.6651C38.4131 60.6961 38.5238 60.7057 38.6331 60.6934C38.7424 60.6812 38.8482 60.6473 38.9443 60.5938C39.042 60.5406 39.1283 60.4686 39.198 60.3819C39.2678 60.2952 39.3198 60.1956 39.3509 60.0888C39.382 59.982 39.3917 59.87 39.3795 59.7594C39.3672 59.6489 39.3331 59.5418 39.2793 59.4444C38.9263 58.8031 38.6331 58.1307 38.4033 57.4356C38.5644 57.4844 38.7285 57.5342 38.8984 57.5938C38.9891 57.6216 39.083 57.6374 39.1777 57.6407C39.3778 57.6408 39.5714 57.5699 39.7241 57.4406C39.8768 57.3113 39.9787 57.132 40.0116 56.9347C40.0445 56.7373 40.0064 56.5347 39.9039 56.3629C39.8015 56.191 39.6414 56.0611 39.4521 55.9962C39.2139 55.9142 38.9844 55.8458 38.7578 55.7784C38.4785 55.6954 38.2099 55.6163 37.9346 55.505C37.9062 55.3546 37.8808 55.2032 37.8633 55.0538L37.8183 54.6485C37.8096 54.5675 37.8008 54.4854 37.791 54.4014L38.2441 54.5899C38.347 54.6273 38.4551 54.6483 38.5644 54.6524C38.7032 54.6524 38.8399 54.6182 38.9623 54.5527C39.0847 54.4873 39.1891 54.3927 39.2663 54.2773C39.3434 54.1619 39.391 54.0293 39.4046 53.8912C39.4183 53.7531 39.3977 53.6137 39.3447 53.4854C39.3176 53.4191 39.2821 53.3564 39.2392 53.2989C39.8627 52.879 40.3245 52.2594 40.5488 51.5421C40.9415 50.4652 41.2322 49.3539 41.417 48.2227L42.1748 48.5089C42.2637 48.535 42.3556 48.5501 42.4482 48.5538C42.6461 48.5539 42.8377 48.4846 42.9898 48.3579C43.1418 48.2312 43.2445 48.0552 43.2801 47.8606C43.3156 47.6659 43.2818 47.465 43.1844 47.2927C43.087 47.1205 42.9322 46.9879 42.7471 46.918L41.6601 46.5079C41.6894 46.2452 41.7139 45.9844 41.7334 45.7286C42.9928 46.7872 44.4177 47.6315 45.9512 48.2276L46.1514 48.3135C46.832 48.6075 47.4765 48.8848 47.6826 49.3506C47.7814 49.6641 47.8205 49.9934 47.7978 50.3213C47.9708 52.6661 48.7071 54.9344 49.9443 56.9336C50.0808 57.1113 50.2823 57.2275 50.5045 57.2566C50.7266 57.2857 50.9512 57.2254 51.1289 57.0889C51.3066 56.9524 51.4227 56.7509 51.4519 56.5288C51.481 56.3066 51.4207 56.082 51.2842 55.9043C50.2703 54.2009 49.6559 52.2897 49.4873 50.3145C49.5181 49.7528 49.4295 49.191 49.2275 48.6661C48.6998 47.745 47.8372 47.0629 46.8193 46.7618L46.625 46.6778C44.9339 46.0606 43.4084 45.0605 42.168 43.7559C41.6355 43.1871 41.2408 42.5035 41.0147 41.7579C40.8467 41.111 40.9149 40.4254 41.207 39.8243C41.5863 40.1203 41.9249 40.4651 42.2139 40.8497C42.5834 41.3276 43.0098 41.7588 43.4834 42.1339C43.975 42.5105 44.5162 42.8174 45.0918 43.046C45.3643 43.1446 45.6211 43.2462 45.9502 43.3751C46.8292 43.756 47.7489 44.0348 48.6914 44.2061C49.0772 44.2667 49.4776 44.3106 49.8652 44.3516C50.8868 44.3665 51.8883 44.6371 52.7783 45.1387C53.3331 45.6188 53.7966 46.1951 54.1465 46.8399C54.5635 47.502 54.9746 48.0997 55.3789 48.6876C56.1403 49.7335 56.8163 50.8389 57.4004 51.9932C57.5791 52.3643 57.7666 52.8008 57.9805 53.2989C58.3282 54.2148 58.7718 55.0914 59.3037 55.9141C61.4629 58.7071 64.5557 60.6426 67.2842 62.3507L73.3721 66.1612C73.5075 66.2327 73.6567 66.2743 73.8096 66.2833C73.9365 66.2832 74.0618 66.2546 74.1762 66.1994C74.2905 66.1443 74.391 66.0642 74.4702 65.965C74.5494 65.8657 74.6052 65.7499 74.6335 65.6262C74.6618 65.5024 74.6619 65.3739 74.6338 65.2501ZM38.2764 51.8731C38.1445 51.8731 37.9287 51.6446 37.8662 51.378C37.8064 50.9212 37.8343 50.4572 37.9482 50.0108L37.9707 49.8819C38.4539 47.2054 38.483 44.4665 38.0566 41.7803C38.0537 41.3409 38.0449 40.9014 38.0185 40.461C37.9469 39.3766 37.8145 38.2971 37.622 37.2276C38.2158 38.6104 38.7656 39.9942 39.2607 41.3565C39.273 41.6311 39.3116 41.9038 39.3759 42.171C39.5306 42.7507 39.7783 43.3014 40.1093 43.8018C40.1306 46.2246 39.7464 48.6338 38.9727 50.9298C38.706 51.6173 38.4326 51.8682 38.2764 51.8731ZM31.2305 49.2227C31.2145 49.2019 31.2017 49.1789 31.1924 49.1544C31.174 48.9185 31.2002 48.6813 31.2695 48.4551C31.5167 47.2074 31.5223 45.9238 31.2861 44.6739L31.2344 44.4092C31.1035 43.755 30.9687 43.0792 31.2314 42.7335C31.3057 42.6538 31.3964 42.5912 31.4972 42.5501C31.5981 42.5089 31.7066 42.4902 31.8154 42.4952C31.9321 42.4948 32.0478 42.5167 32.1562 42.5596C32.339 42.6118 32.5067 42.7067 32.6456 42.8364C32.7845 42.9661 32.8906 43.127 32.9551 43.3057C33.0202 43.5115 33.0586 43.7249 33.0693 43.9405C33.0802 44.3326 33.0662 44.725 33.0273 45.1153C32.9464 45.6933 32.7688 46.2535 32.5019 46.7725C32.264 47.2376 32.1253 47.7471 32.0947 48.2686C31.7141 48.4887 31.4119 48.8223 31.2305 49.2227V49.2227ZM33.957 50.5303C34.1642 50.5589 34.3742 50.5615 34.582 50.5382C34.6323 50.6357 34.6681 50.7399 34.6885 50.8477C34.3335 50.8808 33.9944 51.0105 33.708 51.2227C33.4774 51.3928 33.2851 51.6094 33.1435 51.8585C33.0918 51.6133 33.0329 51.3695 32.9668 51.127L32.9199 50.958C32.8069 50.6436 32.751 50.3116 32.7549 49.9776C33.0886 50.282 33.5087 50.4752 33.957 50.5303ZM31.3057 38.0919C31.8092 38.9686 32.1962 39.9071 32.4571 40.8839C32.074 40.7848 31.6731 40.776 31.2861 40.8582C30.899 40.9404 30.5364 41.1113 30.2266 41.3575C30.6577 40.2939 31.0182 39.203 31.3057 38.0919Z"
          fill="white"/>
</svg>
