<svg width="58" height="50" viewBox="0 0 58 50" fill="none" xmlns="http://www.w3.org/2000/svg">
<path d="M56.777 36.74C54.127 34.6472 51.6856 32.303 49.487 29.74C47.2237 27.2006 44.7481 24.8588 42.087 22.74C42.227 22.47 42.367 22.2 42.517 21.94C42.9925 21.2178 43.3314 20.4145 43.517 19.57C43.6583 18.0023 43.3275 16.4282 42.567 15.05C42.8882 14.1902 43.1162 13.2984 43.247 12.39C43.3627 11.6895 43.283 10.9707 43.0165 10.3126C42.7501 9.65457 42.3074 9.08272 41.737 8.65998C41.7428 8.58009 41.7428 8.49988 41.737 8.41998C41.837 6.59998 41.437 4.18998 39.557 3.47998C39.5174 2.69023 39.2202 1.93519 38.711 1.33024C38.2018 0.725301 37.5085 0.303737 36.737 0.129982C35.7638 -0.0892045 34.7484 -0.0302959 33.807 0.299982C32.8989 0.665005 32.0976 1.25314 31.477 2.00998C31.0972 2.43359 30.686 2.82803 30.247 3.18998C28.897 2.25998 27.487 1.12998 25.837 0.929981C24.187 0.729981 22.837 1.92998 21.377 2.80998C21.047 2.99998 20.717 3.16998 20.377 3.32998C20.2454 3.2362 20.0886 3.18396 19.927 3.17998C17.537 3.08998 15.007 3.05998 12.837 4.17998C12.3045 4.44873 11.8701 4.87833 11.5955 5.40784C11.3209 5.93735 11.22 6.53988 11.307 7.12998C11.3399 8.02083 11.6166 8.88558 12.107 9.62998C11.7665 9.78849 11.461 10.0134 11.2086 10.2916C10.9561 10.5698 10.7618 10.8957 10.637 11.25C10.3978 12.2086 10.475 13.2188 10.857 14.13C10.9752 14.4165 11.1262 14.6883 11.307 14.94C10.457 15.6 10.307 17.03 10.307 18.02C10.2796 18.5397 10.3684 19.0589 10.567 19.54C10.1565 19.8935 9.85689 20.3581 9.70431 20.878C9.55173 21.3978 9.55268 21.9507 9.70704 22.47C9.91014 23.2919 10.3604 24.0318 10.997 24.59C11.1223 24.6867 11.2524 24.7768 11.387 24.86C10.0427 27.0211 8.42235 28.9977 6.56704 30.74C4.73527 32.8594 2.65726 34.7528 0.377038 36.38C-0.502962 36.94 0.317038 38.38 1.20704 37.79C3.60332 36.0885 5.79162 34.1116 7.72704 31.9C9.816 29.9777 11.6178 27.765 13.077 25.33C13.2702 25.3399 13.4638 25.3399 13.657 25.33C14.657 25.33 15.597 25.33 16.567 25.25C17.0171 25.3181 17.4763 25.2957 17.9176 25.1841C18.3589 25.0725 18.7735 24.8739 19.137 24.6C19.4333 24.257 19.6274 23.8378 19.697 23.39C20.649 23.5184 21.6069 23.5985 22.567 23.63C23.5053 23.7354 24.4493 23.4896 25.217 22.94C25.5776 22.5389 25.8367 22.057 25.9724 21.535C26.1082 21.0129 26.1166 20.466 25.997 19.94C25.9299 19.4341 25.718 18.9584 25.387 18.57C26.217 17.81 26.277 16.3 26.167 15.28C26.1592 14.7069 25.9874 14.1481 25.672 13.6696C25.3565 13.1911 24.9106 12.813 24.387 12.58L24.227 12.52C24.3382 12.321 24.4255 12.1095 24.487 11.89C24.73 11.0327 24.6554 10.1166 24.277 9.30998C24.2364 9.22341 24.1896 9.13986 24.137 9.05998C26.137 7.15998 28.967 6.34998 31.137 4.63998C32.367 3.63998 33.137 2.11998 34.777 1.74998C36.007 1.46998 38.177 1.95998 37.957 3.64998C37.847 4.53998 36.957 5.40998 36.397 6.08998C35.727 6.98998 35.047 7.87998 34.397 8.76998C34.3041 8.95582 34.2853 9.16999 34.3442 9.36922C34.4031 9.56845 34.5355 9.73788 34.7145 9.84327C34.8936 9.94867 35.106 9.98217 35.3088 9.93701C35.5115 9.89185 35.6896 9.77139 35.807 9.59998L37.807 6.91998C38.2906 6.35428 38.735 5.75622 39.137 5.12998C39.3726 5.28818 39.5744 5.49165 39.7307 5.72857C39.8869 5.96549 39.9944 6.23111 40.047 6.50998C40.2672 7.41682 40.2672 8.36315 40.047 9.26998C39.7247 10.0546 39.3367 10.8107 38.887 11.53C38.4685 12.4168 38.1337 13.3408 37.887 14.29C37.8287 14.4995 37.856 14.7236 37.9629 14.913C38.0698 15.1024 38.2475 15.2416 38.457 15.3C38.6666 15.3583 38.8907 15.3311 39.0801 15.2242C39.2695 15.1173 39.4087 14.9395 39.467 14.73C39.7499 13.627 40.1734 12.565 40.727 11.57C40.9486 11.1914 41.1489 10.8008 41.327 10.4C41.5312 10.8227 41.6488 11.282 41.6729 11.7508C41.6969 12.2197 41.6269 12.6886 41.467 13.13C41.327 13.66 41.167 14.13 40.997 14.7C40.926 14.8147 40.8848 14.9453 40.877 15.08C40.587 15.98 40.267 16.87 39.977 17.77C39.687 18.67 41.227 19.2 41.547 18.21L41.757 17.57C41.8811 18.1518 41.9015 18.7511 41.817 19.34C41.6389 20.0074 41.3553 20.642 40.977 21.22L40.147 22.79C39.2095 24.1983 38.1085 25.4906 36.867 26.64C35.9583 27.6455 34.9536 28.5598 33.867 29.37C31.9026 30.8599 29.7336 32.0589 27.427 32.93C25.877 33.47 24.337 33.74 23.047 34.85C21.7882 36.0762 20.6248 37.3967 19.567 38.8C16.967 41.88 14.727 45.22 12.227 48.37C12.0779 48.5262 11.9947 48.734 11.9947 48.95C11.9947 49.166 12.0779 49.3737 12.227 49.53C12.3804 49.6808 12.5869 49.7654 12.802 49.7654C13.0172 49.7654 13.2237 49.6808 13.377 49.53C15.687 46.63 17.747 43.53 20.117 40.68C21.287 39.26 22.467 37.8 23.757 36.49C24.3131 35.9089 24.9983 35.4669 25.757 35.2C26.537 34.92 27.347 34.75 28.117 34.46C29.0842 34.0767 30.0261 33.6325 30.937 33.13C33.6486 34.8445 36.0048 37.0649 37.877 39.67C39.9637 42.5584 42.2246 45.3168 44.647 47.93C44.8048 48.0606 45.0057 48.1274 45.2102 48.1174C45.4148 48.1073 45.6081 48.0211 45.7523 47.8757C45.8965 47.7302 45.981 47.5361 45.9893 47.3315C45.9976 47.1269 45.929 46.9266 45.797 46.77C41.187 42.14 38.117 35.77 32.557 32.2C33.347 31.72 34.107 31.2 34.827 30.67C36.0079 29.7775 37.0997 28.7728 38.087 27.67C39.242 26.5848 40.2994 25.4002 41.247 24.13C43.8348 26.2292 46.2462 28.5369 48.457 31.03C50.7152 33.6397 53.2276 36.0181 55.957 38.13C56.1441 38.2395 56.367 38.2705 56.5769 38.2162C56.7868 38.1618 56.9666 38.0266 57.077 37.84C57.1746 37.6525 57.1979 37.4352 57.1423 37.2313C57.0866 37.0274 56.9562 36.852 56.777 36.74ZM12.987 6.37998C13.087 5.92998 13.447 5.75998 13.837 5.55998C14.7821 5.12838 15.7996 4.8774 16.837 4.81998C16.5273 5.40677 16.4585 6.09116 16.6452 6.72786C16.8319 7.36455 17.2595 7.90339 17.837 8.22998C18.8739 8.79651 20.0468 9.06639 21.227 9.00998H21.307C22.427 9.35998 23.147 10.06 22.937 11.22C22.9165 11.4317 22.8289 11.6314 22.687 11.79H22.627C22.5006 11.7801 22.3735 11.7801 22.247 11.79C22.0081 11.7646 21.771 11.7245 21.537 11.67C20.617 11.46 19.727 11.12 18.827 10.83C17.929 10.5738 17.0176 10.3668 16.097 10.21C15.2746 10.1134 14.5024 9.76403 13.887 9.20998C13.3486 8.70371 12.9964 8.03089 12.887 7.29998C12.867 6.98984 12.9008 6.67857 12.987 6.37998ZM22.717 11.81C22.787 11.81 22.777 11.81 22.717 11.81V11.81ZM18.067 22.71C18.067 22.92 18.067 23.31 17.927 23.47C17.787 23.63 17.197 23.63 16.927 23.64L14.357 23.71C13.6061 23.842 12.8327 23.7335 12.147 23.4C11.347 22.83 10.607 20.62 12.197 20.67C13.067 20.74 13.917 20.87 14.767 21.01C15.5672 21.0945 16.3618 21.2247 17.147 21.4C17.296 21.4201 17.4393 21.4707 17.5677 21.5488C17.6962 21.6269 17.8071 21.7307 17.8935 21.8538C17.9799 21.9768 18.04 22.1164 18.0698 22.2637C18.0997 22.4111 18.0987 22.563 18.067 22.71ZM24.237 21.6C23.857 22.15 22.807 22 22.237 21.98C21.357 21.98 20.487 21.89 19.617 21.79C19.5519 21.4419 19.4105 21.1125 19.203 20.8255C18.9956 20.5385 18.7271 20.301 18.417 20.13C17.508 19.7637 16.5454 19.5476 15.567 19.49C14.477 19.32 13.387 19.14 12.277 19.04H12.167C11.687 19.04 11.907 17.46 11.957 17.18C12.007 16.9 12.067 16.4 12.267 16.18C12.467 15.96 12.967 16.18 13.187 16.18C13.9344 16.3926 14.6581 16.6807 15.347 17.04C16.1084 17.3922 16.8897 17.6994 17.687 17.96C19.2395 18.4126 20.824 18.7469 22.427 18.96H22.567C23.087 19.04 23.817 19.11 24.137 19.58C24.3157 19.8836 24.418 20.2259 24.4355 20.5777C24.4529 20.9295 24.3848 21.2803 24.237 21.6ZM24.497 15.13C24.5671 15.5638 24.5671 16.0061 24.497 16.44C24.5025 16.7894 24.4163 17.1342 24.247 17.44C23.9385 17.5973 23.5841 17.6399 23.247 17.56C22.547 17.42 21.817 17.37 21.127 17.25C20.0059 17.0455 18.9 16.7649 17.817 16.41C16.697 16.03 15.667 15.48 14.577 15.04C14.2527 14.907 13.9183 14.8 13.577 14.72C13.5112 14.6786 13.4407 14.645 13.367 14.62C12.8653 14.3764 12.4641 13.9656 12.2323 13.4583C12.0005 12.951 11.9527 12.3787 12.097 11.84C12.1492 11.6801 12.2339 11.5327 12.3457 11.407C12.4576 11.2814 12.5942 11.1803 12.747 11.11C12.9518 11.0594 13.1651 11.0537 13.3723 11.0934C13.5794 11.1331 13.7755 11.2172 13.947 11.34C14.0524 11.396 14.1681 11.4301 14.287 11.44C15.607 11.97 17.147 12.08 18.527 12.53C19.037 12.69 19.527 12.87 20.047 13.02C20.1129 13.0614 20.1834 13.0949 20.257 13.12L22.837 13.88C23.2397 13.9546 23.628 14.093 23.987 14.29C24.2612 14.4917 24.4445 14.7937 24.497 15.13ZM23.717 7.29998C22.7192 7.38073 21.7173 7.40077 20.717 7.35998C19.9564 7.369 19.2096 7.1571 18.567 6.74998C18.247 6.49998 17.937 5.89998 18.347 5.59998C18.7336 5.43701 19.1476 5.34879 19.567 5.33998C19.9573 5.2598 20.339 5.1426 20.707 4.98998C21.492 4.66594 22.2424 4.26392 22.947 3.78998C23.5643 3.2681 24.2683 2.85856 25.027 2.57998C25.8356 2.50163 26.6445 2.72612 27.297 3.20998C27.827 3.51998 28.297 3.86998 28.857 4.20998C28.377 4.50998 27.857 4.78998 27.357 5.06998C26.0815 5.69119 24.8634 6.42405 23.717 7.25998V7.29998Z" fill="black"/>
</svg>
