<svg width="99" height="60" viewBox="0 0 99 60" fill="none" xmlns="http://www.w3.org/2000/svg">
<path d="M97.9832 21.756L97.9821 21.7548C97.8522 21.6741 97.7076 21.62 97.5567 21.5957C97.4058 21.5714 97.2516 21.5774 97.1031 21.6134C96.9545 21.6493 96.8145 21.7145 96.6913 21.8051C96.568 21.8957 96.4639 22.0099 96.3849 22.1412C92.2234 28.939 87.9198 35.9673 82.5188 41.9486C81.7597 42.8528 80.8829 43.6505 79.9119 44.3203C78.6778 45.004 77.3528 45.5077 75.9769 45.8162C73.3798 46.5339 70.1515 47.4273 67.3816 46.5581C67.2251 46.5098 67.0709 46.456 66.9133 46.4011C66.245 46.1344 65.536 45.9848 64.8173 45.9589C64.1145 45.9956 63.4255 46.1681 62.7879 46.467C61.6652 46.9612 60.569 47.514 59.5038 48.1231C58.2261 48.8756 56.884 49.5121 55.4934 50.0251C53.5395 50.6759 50.7368 50.8021 49.2008 49.0549C49.3228 48.9584 49.4531 48.8732 49.5903 48.8002L56.0775 45.2345C57.6384 44.2936 59.3181 43.5668 61.0715 43.0736C63.648 43.9238 66.3039 44.5096 68.9984 44.8218C72.2517 44.9285 75.4851 44.2739 78.4426 42.91C78.936 42.7147 79.4666 42.5051 80.0562 42.2801C80.3425 42.1702 80.5734 41.9507 80.6984 41.67C80.8233 41.3893 80.832 41.0702 80.7225 40.7831C80.6129 40.496 80.3942 40.2642 80.1144 40.1389C79.8345 40.0135 79.5165 40.0048 79.2303 40.1147C78.6352 40.3419 78.0969 40.5548 77.5904 40.7557C74.9049 42.0131 71.96 42.6123 68.9984 42.504C66.2935 42.1093 63.6257 41.4911 61.0222 40.6558C54.1193 38.7473 49.0564 37.4555 46.8017 38.2731C45.9227 38.5565 45.1475 39.0955 44.5744 39.8217C42.9445 41.8564 41.6898 44.1666 40.8692 46.6437L40.7729 46.9378C40.6355 47.4511 40.4267 47.9425 40.1527 48.3974C39.9062 48.731 39.5711 48.9881 39.1857 49.1394C38.8002 49.2906 38.3801 49.3297 37.9735 49.2524C37.8575 49.2275 37.7456 49.1865 37.6409 49.1306C37.6276 48.9386 37.6461 48.7458 37.6956 48.5599C38.4633 44.4977 39.6869 40.5358 41.3429 36.7498C41.4503 36.443 41.6143 36.1593 41.8265 35.9135C42.1034 35.7249 42.4116 35.5874 42.7366 35.5074L50.3277 33.0447C50.6194 32.9502 50.8618 32.7434 51.0015 32.4696C51.1412 32.1959 51.1668 31.8777 51.0727 31.585C50.9785 31.2923 50.7724 31.0492 50.4995 30.909C50.2266 30.7688 49.9094 30.7432 49.6177 30.8376L42.019 33.3026C41.3836 33.4692 40.7914 33.7713 40.2829 34.1883C39.8166 34.6483 39.4559 35.2049 39.2261 35.8191C38.6331 37.1756 38.0752 38.6144 37.5633 40.1103C36.6301 39.3091 35.6532 38.4937 34.6369 37.7079C34.7321 37.4994 34.8251 37.2887 34.9147 37.079C35.2163 36.1861 35.6961 35.3642 36.3248 34.6635C36.6563 34.4153 37.0213 34.2157 37.4089 34.0708L42.1032 32.0174C43.0319 31.6114 43.9914 31.1921 44.9442 30.8541C49.4306 29.2639 54.4016 29.2507 59.2118 29.2375C62.7195 29.3207 66.2284 29.1244 69.7051 28.6503C71.1515 28.4916 72.5412 27.9979 73.7648 27.2082C74.7481 26.4292 75.5841 25.4795 76.2328 24.4041C77.7009 22.2465 79.1734 20.0285 80.6076 17.817C80.6909 17.6896 80.7483 17.547 80.7765 17.3973C80.8048 17.2477 80.8033 17.0939 80.7723 16.9447C80.7412 16.7956 80.6812 16.6541 80.5956 16.5283C80.51 16.4025 80.4005 16.2948 80.2733 16.2115C80.1462 16.1282 80.0039 16.0708 79.8547 16.0427C79.7055 16.0146 79.5522 16.0163 79.4036 16.0477C79.255 16.0791 79.114 16.1395 78.9887 16.2256C78.8635 16.3117 78.7563 16.4218 78.6735 16.5494C77.2349 18.7663 75.7712 20.969 74.3217 23.1014C73.8179 23.9436 73.1753 24.6939 72.4214 25.3205C71.4824 25.8947 70.4272 26.251 69.3332 26.3632C65.9773 26.8146 62.5913 27.0006 59.2063 26.9196C55.133 26.791 51.0579 27.106 47.0523 27.859C46.0666 27.5342 44.9956 27.0996 43.8601 26.6386C40.5487 25.292 36.804 23.7687 32.9992 24.0727C31.9934 22.0718 30.7894 20.1775 29.4055 18.4184C26.7154 15.1765 22.6546 12.7192 19.516 10.8875C19.6823 9.80647 19.8857 8.72983 20.0827 7.70807L21.297 1.38873C21.3262 1.23831 21.3254 1.08356 21.2945 0.933481C21.2636 0.783397 21.2033 0.640963 21.1171 0.51445C21.0309 0.387937 20.9205 0.279867 20.7923 0.196513C20.6641 0.113159 20.5207 0.0561823 20.3704 0.0288933C20.0712 -0.0231055 19.7636 0.0439989 19.5129 0.215944C19.2623 0.38789 19.0883 0.651119 19.0281 0.94969L17.8138 7.26897C17.1646 10.0618 16.848 12.9221 16.8708 15.7898C16.8885 16.0942 17.024 16.3795 17.2484 16.5851C17.4727 16.7907 17.7682 16.9003 18.0719 16.8906H18.0742C18.226 16.8842 18.3751 16.8478 18.5129 16.7834C18.6506 16.7191 18.7743 16.628 18.8769 16.5155C18.9795 16.403 19.0589 16.2713 19.1106 16.128C19.1622 15.9846 19.1852 15.8324 19.178 15.6801C19.147 14.92 19.162 14.1588 19.2228 13.4006C22.3577 15.0967 25.1971 17.2925 27.63 19.9021C28.8947 21.5173 29.9966 23.2544 30.9196 25.0877C30.8195 25.2127 30.7263 25.3432 30.6406 25.4785C29.6178 27.0786 28.6343 28.7248 27.7012 30.3985C27.5324 28.0241 27.1872 25.6656 26.6684 23.3427C26.3879 21.3762 25.4576 19.561 24.0265 18.1878C23.9092 18.0913 23.7741 18.0188 23.6289 17.9747C23.4837 17.9305 23.3312 17.9154 23.1802 17.9304C23.0292 17.9453 22.8826 17.9899 22.7488 18.0617C22.615 18.1334 22.4966 18.2309 22.4003 18.3486C22.3041 18.4663 22.2319 18.6018 22.1878 18.7475C22.1438 18.8932 22.1288 19.0461 22.1437 19.1976C22.1585 19.3491 22.203 19.4962 22.2746 19.6304C22.3461 19.7647 22.4433 19.8835 22.5606 19.98C23.5745 21.0429 24.2244 22.4023 24.4159 23.8609C24.9057 26.0577 25.2315 28.2882 25.3906 30.5336C25.2493 30.3542 25.058 30.2209 24.841 30.1508C24.624 30.0806 24.3911 30.0767 24.1719 30.1396C23.8767 30.2242 23.6269 30.4228 23.4776 30.692C23.3283 30.9612 23.2916 31.2788 23.3755 31.5751C23.8423 32.9955 24.7747 34.2156 26.0208 35.0366C26.7895 35.5606 27.5946 36.0289 28.4297 36.4381C28.7283 36.5929 29.027 36.7476 29.3191 36.9079C32.0015 38.4979 34.5061 40.3722 36.7899 42.4985C36.3654 43.9307 35.9956 45.3838 35.686 46.8368C34.5945 46.0765 33.4213 45.4414 32.1885 44.9436C31.4917 44.633 30.7533 44.2972 30.0105 43.8846C29.9905 43.8694 29.9697 43.8555 29.9481 43.8429C29.9162 43.8239 29.8833 43.8067 29.8496 43.7913C29.5169 43.6047 29.1951 43.3992 28.8858 43.1756C27.6848 42.3168 26.438 41.5243 25.151 40.8017C24.8849 40.6678 24.6092 40.554 24.3262 40.4615C24.313 40.456 24.2988 40.4516 24.2868 40.4472C23.4154 40.1938 22.5187 40.0381 21.6131 39.983C21.0763 39.9422 20.5421 39.8729 20.0126 39.7756C18.4628 39.4518 17.0706 38.6041 16.0689 37.3743C15.936 37.2112 15.7614 37.0875 15.5638 37.0165C15.3661 36.9455 15.1529 36.9298 14.9471 36.9712C14.7412 37.0127 14.5505 37.1096 14.3954 37.2515C14.2404 37.3935 14.1268 37.5752 14.0669 37.777C11.0925 32.3423 8.23827 26.8087 5.71886 21.1731C4.54725 18.7238 3.62616 16.1616 2.96969 13.5259C2.27667 9.46396 2.13169 5.32698 2.53866 1.2263C2.54782 1.07359 2.52651 0.920577 2.47598 0.776231C2.42545 0.631886 2.34671 0.499107 2.24438 0.385675C2.04858 0.162552 1.77309 0.025744 1.47751 0.00485569C1.3242 -0.00933339 1.16961 0.00765185 1.02299 0.0547957C0.876374 0.10194 0.740745 0.178271 0.62422 0.279226C0.507623 0.382506 0.412808 0.508152 0.345358 0.64876C0.277908 0.789368 0.239189 0.942096 0.23148 1.09795C-0.194399 5.40898 -0.0320836 9.75814 0.713939 14.0252C1.40219 16.8165 2.37284 19.5301 3.61078 22.1236C8.39759 32.3618 13.6932 42.3527 19.4777 52.0587L22.2684 56.9217C22.5986 57.6021 23.1035 58.1821 23.7311 58.6019C24.3103 58.904 24.9513 59.0678 25.604 59.0804L34.9104 59.8344C35.9092 59.9156 36.943 59.999 37.991 59.999C39.0479 60.0117 40.1027 59.9004 41.134 59.6676C42.3326 59.3445 43.4987 58.9101 44.6172 58.3703L47.0841 57.2684C47.7334 57.0286 48.3055 56.6162 48.7393 56.0754C49.1054 55.4994 49.2593 54.813 49.1742 54.1352C49.0891 53.4573 48.7704 52.8307 48.2732 52.3637C47.4775 51.6377 46.4587 51.2057 45.3852 51.1389C43.2943 50.9006 41.183 51.3518 39.3705 52.4241L39.2042 52.524C39.0218 52.6515 38.8221 52.752 38.6113 52.8225C38.3511 52.8301 38.0914 52.7956 37.8422 52.7204C36.2724 52.355 34.8502 52.1014 33.5954 51.8787C33.0353 51.7788 32.4413 51.6724 31.8155 51.5538C31.9807 51.454 32.1438 51.3464 32.3024 51.2312C33.1728 50.5751 33.9607 49.8156 34.6489 48.9692C34.9248 49.2007 35.1803 49.4555 35.4125 49.7309C35.4505 49.8837 35.5055 50.0317 35.5766 50.1721C35.773 50.5243 36.0457 50.8279 36.3746 51.0604C36.7034 51.2929 37.0801 51.4484 37.4768 51.5154C38.3296 51.6853 39.2131 51.607 40.0229 51.2896C40.8328 50.9723 41.5353 50.4291 42.0474 49.7243C42.4581 49.0823 42.7701 48.3819 42.973 47.6467L43.0616 47.3734C43.4146 46.3209 43.8559 45.3002 44.3809 44.3224C44.773 44.2292 45.154 44.0942 45.5175 43.9196C45.6739 43.8505 45.8293 43.7792 45.9869 43.7221C46.8442 43.4973 47.7362 43.4377 48.6157 43.5465L49.2578 43.5772C51.9695 43.5579 54.653 43.0246 57.1673 42.0056L57.223 42.021C56.5087 42.3546 55.8315 42.7267 54.9673 43.2019L48.4812 46.7676C46.7177 47.7345 46.6969 48.8913 46.8413 49.4938C46.9379 49.8603 47.1206 50.1982 47.3741 50.4793C48.0564 51.2482 48.9019 51.8539 49.8483 52.2518C50.7947 52.6497 51.8179 52.8297 52.8428 52.7786C53.9905 52.7748 55.1304 52.5885 56.2199 52.2265C57.753 51.6675 59.2323 50.9699 60.6396 50.1424C61.6267 49.5782 62.6417 49.0646 63.6808 48.6037C64.0558 48.4235 64.4601 48.3123 64.8743 48.2756C65.3159 48.313 65.7489 48.4196 66.1575 48.5917C66.3359 48.6542 66.5153 48.7157 66.6958 48.7727C70.1068 49.8439 73.7005 48.8496 76.5907 48.0506C78.1859 47.6903 79.7191 47.0952 81.1406 46.2847C82.2933 45.5039 83.3338 44.5682 84.2331 43.5037C89.7784 37.3611 94.1412 30.2373 98.3617 23.3429C98.5187 23.0814 98.567 22.7686 98.4962 22.4717C98.4254 22.1749 98.2412 21.9178 97.9832 21.756ZM49.3366 41.2594L48.7228 41.2308C47.9451 41.1672 47.1631 41.1768 46.3872 41.2594C46.6983 40.8687 47.1232 40.5851 47.6026 40.4483C48.3203 40.1893 50.0389 40.3474 52.7235 40.9192C51.6109 41.16 50.4747 41.2741 49.3366 41.2594ZM32.5857 26.7319C32.6327 26.6573 32.7596 26.4598 32.7804 26.4345C32.8601 26.4149 32.9414 26.4024 33.0233 26.3972C36.3325 26.0811 39.8606 27.5133 42.9992 28.7886C43.137 28.8446 43.2738 28.8995 43.4094 28.9543C42.6316 29.2583 41.8702 29.592 41.1777 29.8949L38.3619 31.1263L37.0064 30.3755C36.7396 30.2164 36.4293 30.1464 36.1203 30.1758C35.7425 30.2245 35.3971 30.4146 35.1532 30.7081L31.076 35.2583C30.8638 35.1244 30.6472 34.9938 30.4251 34.872C30.1155 34.703 29.8026 34.5416 29.4897 34.3792C29.191 34.2245 28.8399 34.0368 28.4756 33.8283C29.7293 31.4226 31.1099 29.0388 32.5857 26.7319ZM45.1182 53.4415C45.6766 53.4625 46.2135 53.6629 46.6497 54.0133C46.7469 54.1019 46.8177 54.2157 46.8544 54.3422C46.8911 54.4687 46.8922 54.6029 46.8576 54.7299C46.649 54.9162 46.4059 55.0594 46.1421 55.1514L43.6763 56.2533C42.6887 56.7327 41.6594 57.1203 40.6012 57.4111C38.7826 57.7326 36.9254 57.7707 35.0953 57.5242L25.7889 56.7713C25.4847 56.7686 25.1835 56.7113 24.8995 56.6023C24.6344 56.3704 24.4205 56.0856 24.2715 55.766L21.4808 50.903C19.3858 47.2506 17.2624 43.5509 15.1839 39.8041C16.4141 40.9322 17.9239 41.7077 19.5554 42.0495C20.1644 42.1622 20.779 42.2425 21.3965 42.2898C22.0004 42.3321 22.6005 42.4161 23.1928 42.5412C24.2819 44.4005 25.203 46.3537 25.9452 48.3776C25.7887 48.778 25.691 49.1991 25.6553 49.6276C25.5948 50.1004 25.6636 50.5808 25.8544 51.0173C26.0452 51.4539 26.3508 51.8301 26.7384 52.1058C27.0744 52.3113 27.4504 52.4423 27.8411 52.4899C27.8947 52.4976 27.9483 52.5042 28.0019 52.5096L28.2765 52.8795C28.4407 53.1006 28.6774 53.2565 28.9449 53.3196C30.5126 53.684 31.9358 53.9364 33.1917 54.1602C34.4782 54.3896 35.8085 54.6266 37.3378 54.9822C37.8494 55.1557 38.3951 55.2029 38.9287 55.1198C39.4623 55.0367 39.9681 54.8258 40.4032 54.505L40.5519 54.415C41.9272 53.5988 43.531 53.2569 45.1182 53.4415ZM27.4002 45.7569C27.2318 45.3673 27.0556 44.9777 26.8751 44.5946C27.1344 44.7702 27.3587 44.9272 27.5217 45.0468C27.5961 45.1017 27.6715 45.1544 27.7459 45.207L27.4002 45.7569ZM30.9567 49.3468C30.1704 49.9783 29.1717 50.2818 28.1682 50.194C28.0763 50.1809 28.0249 50.1677 28.0107 50.1677H28.0096C27.9636 50.0506 27.9467 49.924 27.9603 49.7989C28.1034 49.057 28.4156 48.3583 28.8727 47.7576L29.7523 46.3627C30.2205 46.5965 30.7062 46.8193 31.2499 47.0618C31.7017 47.2637 32.1907 47.481 32.6699 47.7203C32.1615 48.3252 31.5868 48.8708 30.9568 49.3468H30.9567Z" fill="white" fill-opacity="0.87"/>
</svg>
