<svg width="72" height="72" viewBox="0 0 72 72" fill="none" xmlns="http://www.w3.org/2000/svg">
<g clip-path="url(#clip0)">
<path d="M36 1.80005C29.3249 1.80005 22.7997 3.77945 17.2495 7.48795C11.6994 11.1964 7.37354 16.4675 4.81908 22.6345C2.26462 28.8015 1.59626 35.5875 2.89851 42.1343C4.20076 48.6812 7.41514 54.6949 12.1352 59.4149C16.8552 64.1349 22.8689 67.3493 29.4157 68.6515C35.9626 69.9538 42.7486 69.2854 48.9156 66.731C55.0826 64.1765 60.3536 59.8507 64.0621 54.3005C67.7706 48.7504 69.75 42.2252 69.75 35.55C69.7399 26.6021 66.1809 18.0235 59.8537 11.6964C53.5265 5.36922 44.948 1.81017 36 1.80005V1.80005ZM36 67.05C29.7699 67.05 23.6797 65.2026 18.4996 61.7413C13.3194 58.2801 9.28197 53.3604 6.89781 47.6046C4.51365 41.8487 3.88984 35.5151 5.10528 29.4047C6.32071 23.2943 9.3208 17.6815 13.7262 13.2762C18.1315 8.87083 23.7443 5.87075 29.8547 4.65531C35.9651 3.43988 42.2987 4.06368 48.0545 6.44784C53.8104 8.832 58.73 12.8694 62.1913 18.0496C65.6526 23.2297 67.5 29.3199 67.5 35.55C67.4905 43.9014 64.1687 51.908 58.2634 57.8134C52.358 63.7187 44.3514 67.0405 36 67.05V67.05Z" fill="white" fill-opacity="0.4"/>
<path d="M49.5 34.425C45.7774 34.425 42.75 30.8914 42.75 26.55H40.5C40.5 32.1334 44.5376 36.675 49.5 36.675C54.4624 36.675 58.5 32.1334 58.5 26.55H56.25C56.25 30.8914 53.2226 34.425 49.5 34.425Z" fill="white" fill-opacity="0.4"/>
<path d="M31.5 26.55H29.25C29.25 30.8914 26.2226 34.425 22.5 34.425C18.7774 34.425 15.75 30.8914 15.75 26.55H13.5C13.5 32.1334 17.5376 36.675 22.5 36.675C27.4624 36.675 31.5 32.1334 31.5 26.55Z" fill="white" fill-opacity="0.4"/>
<path d="M36 56.925C32.7191 56.9212 29.5738 55.6161 27.2538 53.2962C24.9339 50.9763 23.6289 47.8309 23.625 44.55H21.375C21.375 48.4288 22.9158 52.1488 25.6586 54.8915C28.4013 57.6342 32.1212 59.175 36 59.175C39.8788 59.175 43.5987 57.6342 46.3414 54.8915C49.0842 52.1488 50.625 48.4288 50.625 44.55H48.375C48.3711 47.8309 47.0661 50.9763 44.7462 53.2962C42.4262 55.6161 39.2809 56.9212 36 56.925Z" fill="white" fill-opacity="0.4"/>
</g>
<defs>
<clipPath id="clip0">
<rect width="72" height="72" fill="white"/>
</clipPath>
</defs>
</svg>
