<svg width="48" height="70" viewBox="0 0 48 70" fill="none" xmlns="http://www.w3.org/2000/svg">
<path d="M47.3055 53.8697C43.614 52.8611 39.9728 51.0355 38.1674 47.5658L38.1069 47.4448C38.0991 47.4116 38.0991 47.3771 38.1069 47.3439V47.2834C38.1069 47.1523 38.0363 47.0211 37.9959 46.89C37.8749 46.4563 37.774 46.0125 37.6732 45.5687C37.3605 44.1869 37.068 42.8051 36.7755 41.4132C36.0896 38.1553 35.434 34.8874 34.7582 31.6295C34.5565 30.6814 34.375 29.7333 34.1329 28.7953C33.9614 28.1296 33.7194 27.4841 33.5378 26.8285C33.1848 25.5576 32.8923 24.2666 32.6401 22.9755C32.388 21.6845 32.1963 20.3531 31.9946 19.0318C31.8332 18.0232 31.8534 17.0146 31.6719 16.0059C31.6195 15.6951 31.5245 15.3931 31.3894 15.1083C31.2381 13.3835 31.2482 11.6386 31.1776 9.90377C31.1776 8.98592 31.0768 8.06808 30.9456 7.16032C30.901 6.45732 30.6284 5.78804 30.169 5.25402L29.9875 5.16324C30.2295 3.53935 30.6027 0.715206 28.5956 0.170549C27.7111 -0.053571 26.7761 0.0392163 25.953 0.432791C25.7641 0.531252 25.5908 0.656999 25.4386 0.805982C25.0416 0.387405 24.5091 0.122976 23.9357 0.0596006C23.486 -0.0272049 23.0232 -0.01911 22.5768 0.0833662C22.1304 0.185842 21.7103 0.38044 21.3435 0.654689C20.2341 1.56245 20.1635 3.0653 19.9315 4.36643C19.4473 7.06954 18.9228 9.77265 18.4891 12.4354C17.4805 17.8114 16.6333 23.1974 15.2414 28.4826C13.8495 33.7678 12.1449 38.821 10.3798 43.9146C9.90575 45.2863 9.46195 46.6681 8.93747 48.0298C8.50586 49.2222 7.77677 50.2846 6.81936 51.1162C5.09461 52.6392 2.7546 53.2746 0.565886 53.8697C0.365305 53.9365 0.197902 54.0775 0.0980591 54.2638C-0.00178356 54.4502 -0.0264861 54.6677 0.0290275 54.8716C0.0845411 55.0756 0.216056 55.2506 0.396558 55.3606C0.57706 55.4707 0.792846 55.5074 0.999595 55.4633C2.98678 54.9967 4.90076 54.2603 6.68824 53.2746C8.51997 52.1603 9.90436 50.4405 10.6017 48.413C11.5095 46.0327 12.2962 43.6019 13.1132 41.1913C13.9302 38.7807 14.7572 36.2389 15.5137 33.7376C16.9942 28.7838 18.1897 23.7492 19.0943 18.6586C19.9819 13.7265 20.9502 8.7842 21.7268 3.83186C21.7549 3.20983 21.9425 2.60548 22.2715 2.07685C22.5063 1.85242 22.8041 1.7051 23.125 1.65462C23.4458 1.60415 23.7745 1.65293 24.0668 1.79443C24.2523 1.92579 24.3959 2.10792 24.4804 2.31892C24.5179 2.41665 24.5449 2.51808 24.5611 2.62151C24.5611 2.62151 24.5611 2.74254 24.5611 2.7728C24.5644 3.17348 24.5476 3.57407 24.5106 3.97306C24.5106 4.39668 24.4299 4.82031 24.3694 5.24393C24.0634 5.1465 23.7394 5.11893 23.4213 5.16324C21.0309 5.47591 21.2629 8.67325 21.1116 10.4182C20.863 13.0821 20.4588 15.7292 19.9012 18.346C19.5986 19.8085 19.2759 21.2609 18.8926 22.7133C18.6236 24.1846 18.2357 25.6317 17.7327 27.0403C17.7036 27.1443 17.6955 27.253 17.7088 27.3601C17.722 27.4673 17.7563 27.5707 17.8098 27.6645C17.8633 27.7583 17.9348 27.8405 18.0202 27.9065C18.1057 27.9725 18.2033 28.0209 18.3076 28.0489C18.5174 28.1021 18.7397 28.0719 18.9277 27.9647C19.1158 27.8575 19.255 27.6816 19.3162 27.474C19.7078 26.4037 20.0147 25.3043 20.2341 24.1859C20.5064 23.0159 20.7787 21.8358 21.041 20.6658C21.5554 18.3056 22.0496 15.9454 22.3623 13.6054C22.5236 12.4152 22.6648 11.215 22.7556 10.0147C22.733 9.0781 22.866 8.14422 23.149 7.25109C23.4415 6.56523 24.087 6.68626 24.4602 7.25109C24.7752 7.8747 24.9179 8.5711 24.8737 9.26834V9.43981C24.8737 9.61127 24.8737 9.78274 24.8737 9.93403C25.0049 11.5882 25.1965 13.2221 25.3276 14.8763H25.2469C24.9117 15.0453 24.6194 15.2885 24.3922 15.5873C24.165 15.8862 24.0089 16.2328 23.9357 16.601C23.6533 17.3575 23.3911 18.114 23.1591 18.8805C22.6648 20.4641 22.2614 22.0779 21.8983 23.6917C21.1822 26.8083 20.6375 29.9653 19.881 33.0719C19.639 34.0805 21.2225 34.5445 21.4646 33.5157C22.6951 28.2607 23.4818 22.8747 25.2267 17.761C25.3276 17.4987 25.5293 16.5304 25.8218 16.4397H25.953H26.0538C26.306 16.6212 26.3867 17.3777 26.3867 17.5895C26.3867 19.1226 26.2959 20.6154 26.2555 22.1888C26.1547 25.3055 26.0538 28.4322 25.963 31.5488C25.8824 34.1713 25.8824 36.8038 25.6907 39.4161C25.5193 41.6048 25.2167 43.7734 24.8838 45.9318C24.6014 47.7574 24.2786 49.583 23.9861 51.3986C23.8637 53.2088 23.4587 54.9887 22.7859 56.6737C21.4343 59.3566 18.5396 59.871 15.9071 60.7082C12.8526 61.6425 9.93313 62.9717 7.22281 64.662C6.32513 65.2268 7.1522 66.6792 8.05996 66.0942C10.614 64.4855 13.3674 63.2174 16.25 62.322C18.8119 61.5453 21.6562 61.0007 23.4112 58.7817C24.0728 57.9291 24.5626 56.9563 24.8536 55.9172C24.8848 55.9895 24.9117 56.0636 24.9342 56.1391C25.5414 57.6344 26.6267 58.8864 28.0206 59.6996C29.5941 60.7082 31.1877 61.6159 32.741 62.6548C34.2943 63.6937 35.8476 64.7931 37.3807 65.9127C39.0953 67.1735 40.7999 68.4645 42.5045 69.7454C42.5972 69.7999 42.6997 69.8356 42.8061 69.8503C42.9126 69.8651 43.021 69.8587 43.125 69.8316C43.229 69.8044 43.3266 69.757 43.4122 69.692C43.4979 69.627 43.5699 69.5458 43.6241 69.4529C43.7293 69.263 43.7577 69.0399 43.7033 68.8297C43.6488 68.6195 43.5158 68.4382 43.3316 68.3233C40.4771 66.1648 37.6328 64.0064 34.6776 61.979C33.2352 60.9704 31.7626 60.0324 30.2598 59.1246C28.9284 58.3177 27.5668 57.6319 26.7901 56.1996C26.1216 54.7147 25.7417 53.1162 25.6705 51.4893C25.6763 51.4222 25.6763 51.3547 25.6705 51.2876C25.9025 49.8655 26.1547 48.4433 26.3766 47.0211C26.7498 44.6811 27.0927 42.3411 27.2944 39.9608C27.5264 37.2476 27.5163 34.5142 27.597 31.801C27.7046 28.4389 27.8088 25.1004 27.9097 21.7854C27.9097 20.9886 27.9601 20.1817 27.9904 19.3848C27.9904 18.7897 28.061 18.1846 28.0408 17.5794C28.0742 17.0653 28.1829 16.559 28.3636 16.0766C28.3962 15.9839 28.4509 15.9006 28.523 15.8338C28.595 15.767 28.6822 15.7188 28.7771 15.6933C29.0716 15.6181 29.3803 15.6181 29.6748 15.6933C30.1892 15.9152 30.1085 17.3172 30.1589 17.7912C30.3941 20.1032 30.7611 22.3999 31.2583 24.67C31.5306 25.9207 31.8332 27.1613 32.2669 28.3818C32.388 28.7751 32.5191 29.1382 32.62 29.5316C32.862 30.5402 33.0638 31.5488 33.2857 32.6079C33.9413 35.7851 34.5868 38.9824 35.3029 42.1596C35.5853 43.501 35.8677 44.8425 36.1703 46.1941C36.3004 46.9286 36.5136 47.646 36.8058 48.3324C38.7625 52.2862 42.918 54.3841 47.0029 55.5339C47.2236 55.5741 47.4512 55.5249 47.6357 55.3972C47.8201 55.2695 47.9462 55.0738 47.9864 54.8531C48.0265 54.6324 47.9773 54.4048 47.8496 54.2204C47.7219 54.036 47.5262 53.9098 47.3055 53.8697ZM26.7599 1.85495C27.1982 1.67609 27.682 1.64078 28.1417 1.75409C28.5552 1.93564 28.4745 2.66185 28.4745 3.03504C28.4798 3.56433 28.4495 4.09337 28.3837 4.61858C27.506 4.6064 26.6547 4.9189 25.9933 5.49609C26.0437 5.17333 26.074 4.85057 26.1143 4.48746C26.1955 3.93644 26.236 3.38019 26.2354 2.82323C26.306 2.4803 26.3867 2.0365 26.7599 1.85495ZM28.6056 14.0391C28.2764 14.0766 27.9608 14.1922 27.6853 14.3765C27.4099 14.5607 27.1825 14.8082 27.0221 15.0982C26.891 13.3734 26.6893 11.6487 26.548 9.92394V9.40955V9.32886C26.4302 8.42093 26.6336 7.50038 27.123 6.72661C27.3099 6.55564 27.5298 6.42454 27.7691 6.3413C28.0084 6.25807 28.2621 6.22444 28.5149 6.24247C29.0091 6.2929 29.12 6.70643 29.2108 7.13006C29.4205 8.41345 29.515 9.71303 29.4932 11.0133C29.4932 12.0219 29.4932 12.97 29.5941 13.9484C29.2625 13.9478 28.9316 13.9782 28.6056 14.0391Z" fill="white"/>
</svg>
